<svg xmlns="http://www.w3.org/2000/svg" xmlns:xlink="http://www.w3.org/1999/xlink" viewBox="0 0 40 22"><defs><style>.cls-1{fill:#fff;}.cls-2{fill:url(#radial-gradient);}.cls-3{fill:url(#radial-gradient-2);}.cls-4{fill:url(#radial-gradient-6);}</style><radialGradient id="radial-gradient" cx="-121.06" cy="282.81" r="18.55" gradientTransform="matrix(1.44, 0, 0, -1, 190.9, 294.31)" gradientUnits="userSpaceOnUse"><stop offset="0" stop-color="#9ed5f5"/><stop offset="0.07" stop-color="#99d3f4"/><stop offset="0.16" stop-color="#8bcff3"/><stop offset="0.25" stop-color="#71c6ef"/><stop offset="0.35" stop-color="#50bceb"/><stop offset="0.45" stop-color="#27ade3"/><stop offset="0.5" stop-color="#18a6e0"/><stop offset="1" stop-color="#2f77bc"/></radialGradient><radialGradient id="radial-gradient-2" cx="-138" cy="307.07" r="63.68" xlink:href="#radial-gradient"/><radialGradient id="radial-gradient-6" cx="-7.75" cy="31.56" r="76.55" gradientTransform="matrix(1, 0, 0, 1, 0, 0)" xlink:href="#radial-gradient"/></defs><g id="Camada_2" data-name="Camada 2"><g id="Camada_1-2" data-name="Camada 1"><rect class="cls-1" width="40" height="22" rx="2"/><path class="cls-2" d="M24,17.36H21V13.89h3v.65H21.8v.7h1.86v.66H21.8v.79H24Zm.15-1.14v-.46l0,.06,0,.07.05.06.06.06.07.06.11.08.13.07h-.51Zm3.29.68a.78.78,0,0,1-.59.42,3.8,3.8,0,0,1-.58,0H24.59v-.62h1.53a1,1,0,0,0,.49-.08.35.35,0,0,0,.18-.33.38.38,0,0,0-.21-.36.73.73,0,0,0-.38-.07h-.62a1.28,1.28,0,0,1-.82-.21,1,1,0,0,1-.24-.34,1.12,1.12,0,0,1-.09-.44,1.22,1.22,0,0,1,.2-.67.87.87,0,0,1,.65-.34h2.11v.61h-1.5l-.45,0c-.15,0-.22.16-.22.36a.32.32,0,0,0,.19.33,1,1,0,0,0,.42.06h.54a1.83,1.83,0,0,1,.61.08.73.73,0,0,1,.49.43,1.24,1.24,0,0,1,.11.54A1.1,1.1,0,0,1,27.44,16.9Zm3.45,0a.78.78,0,0,1-.59.42,3.8,3.8,0,0,1-.58,0H28v-.62h1.53a1.07,1.07,0,0,0,.5-.08.35.35,0,0,0,.17-.33A.37.37,0,0,0,30,16a.75.75,0,0,0-.38-.07H29a1.28,1.28,0,0,1-.82-.21.94.94,0,0,1-.25-.34,1.12,1.12,0,0,1-.09-.44,1.16,1.16,0,0,1,.21-.67.85.85,0,0,1,.65-.34h2.11v.61h-1.5l-.45,0a.32.32,0,0,0-.23.36.33.33,0,0,0,.19.33,1.12,1.12,0,0,0,.43.06h.53a1.89,1.89,0,0,1,.62.08.76.76,0,0,1,.49.43,1.41,1.41,0,0,1,.11.54A1.2,1.2,0,0,1,30.89,16.9Zm-2.84-.7.05,0h-.05Z"/><polygon points="28.05 16.2 28.05 16.22 28.1 16.22 28.05 16.2"/><polygon class="cls-3" points="28.05 16.2 28.05 16.22 28.1 16.22 28.05 16.2"/><path class="cls-3" d="M1.23,10.33H2.59l.34.8h.89L2.35,7.66H1.48L0,11.13H.89ZM1.91,8.5l.51,1.21h-1Z"/><polygon class="cls-3" points="8.09 11.13 8.96 11.13 8.96 9.6 8.96 7.67 7.63 7.67 6.82 9.6 6.5 10.37 5.43 7.67 4.1 7.67 4.1 11.13 4.97 11.13 4.97 8.53 6.03 11.13 6.97 11.13 7.63 9.6 8.09 8.53 8.09 9.6 8.09 11.13"/><polygon class="cls-3" points="12.83 8.31 12.83 7.67 9.87 7.67 9.87 9.6 9.87 11.13 12.9 11.13 12.9 10.46 10.69 10.46 10.69 9.67 12.56 9.67 12.56 9.6 12.56 9.02 10.69 9.02 10.69 8.31 12.83 8.31"/><path class="cls-4" d="M16.65,9.39a1,1,0,0,0,.29-.76.81.81,0,0,0-.13-.45.86.86,0,0,0-.35-.33,2.74,2.74,0,0,0-1.19-.19h-2v3.47h.86V9.82h.7a1.6,1.6,0,0,1,.68.1.63.63,0,0,1,.28.25,1.1,1.1,0,0,1,.13.47,2.53,2.53,0,0,0,.09.49h1a2.35,2.35,0,0,1-.1-.52,1.92,1.92,0,0,0,0-.34,1.22,1.22,0,0,0-.1-.24.88.88,0,0,0-.23-.24,1.62,1.62,0,0,0-.36-.15l.13,0A1.07,1.07,0,0,0,16.65,9.39Z"/><path class="cls-1" d="M15.79,9.12a.85.85,0,0,1-.43.08H14.15V8.28h1.21a1.35,1.35,0,0,1,.34,0,.39.39,0,0,1,.29.41A.43.43,0,0,1,15.79,9.12Z"/><polygon class="cls-3" points="18.25 9.6 18.25 7.67 17.49 7.67 17.49 9.6 17.49 11.13 18.25 11.13 18.25 9.6"/><path class="cls-3" d="M21.58,7.66h-1.2a2.21,2.21,0,0,0-.88.15,1.18,1.18,0,0,0-.53.46,2,2,0,0,0-.28,1.14V9.6a2.13,2.13,0,0,0,.18.78,1.2,1.2,0,0,0,.93.72,3.75,3.75,0,0,0,.54,0h1.42l.34-.8h1.36l.34.8h.89L24,9.6l-.82-1.94h-.88L21.52,9.6l-.39.92h-.64a1.07,1.07,0,0,1-.66-.17,1,1,0,0,1-.3-.75c0-.08,0-.17,0-.26a1.19,1.19,0,0,1,.2-.79,1,1,0,0,1,.75-.27h1.11Zm.74,1.94.46-1.1.46,1.1.05.11h-1Z"/><polygon class="cls-3" points="20.37 8.8 20.29 8.81 20.23 8.82 20.19 8.84 20.15 8.85 20.12 8.87 20.1 8.88 20.09 8.9 20.09 8.9 20.08 8.91 20.07 8.94 20.05 8.99 20.04 9.05 20.03 9.14 20.02 9.24 20.02 9.35 20.02 9.51 20.04 9.64 20.05 9.75 20.07 9.84 20.1 9.9 20.12 9.94 20.13 9.96 20.14 9.97 20.15 9.97 20.18 9.98 20.22 9.99 20.27 10.01 20.33 10.01 20.4 10.02 20.49 10.02 20.79 10.02 21.3 8.8 20.46 8.8 20.37 8.8"/><polygon class="cls-3" points="25.81 9.6 25.81 8.59 26.39 9.6 27.27 11.13 28.2 11.13 28.2 9.6 28.2 7.67 27.48 7.67 27.48 9.6 27.48 10.25 27.12 9.6 26.06 7.67 25.09 7.67 25.09 9.6 25.09 11.13 25.81 11.13 25.81 9.6"/><path class="cls-3" d="M30.43,15.36a1.89,1.89,0,0,0-.62-.08h-.53a1.12,1.12,0,0,1-.43-.06.33.33,0,0,1-.19-.33.32.32,0,0,1,.23-.36l.45,0h1.5v-.61H28.73a.85.85,0,0,0-.65.34,1.16,1.16,0,0,0-.21.67,1.12,1.12,0,0,0,.09.44.94.94,0,0,0,.25.34,1.28,1.28,0,0,0,.82.21h.62A.75.75,0,0,1,30,16a.37.37,0,0,1,.2.36.35.35,0,0,1-.17.33,1.07,1.07,0,0,1-.5.08H28v.62h1.69a3.8,3.8,0,0,0,.58,0,.78.78,0,0,0,.59-.42,1.2,1.2,0,0,0,.14-.57,1.41,1.41,0,0,0-.11-.54A.76.76,0,0,0,30.43,15.36Z"/><path class="cls-3" d="M27,15.36a1.83,1.83,0,0,0-.61-.08h-.54a1,1,0,0,1-.42-.06.32.32,0,0,1-.19-.33c0-.2.07-.32.22-.36l.45,0h1.5v-.61H25.28a.87.87,0,0,0-.65.34,1.22,1.22,0,0,0-.2.67,1.12,1.12,0,0,0,.09.44,1,1,0,0,0,.24.34,1.28,1.28,0,0,0,.82.21h.62a.73.73,0,0,1,.38.07.38.38,0,0,1,.21.36.35.35,0,0,1-.18.33,1,1,0,0,1-.49.08H24.59v.62h1.68a3.8,3.8,0,0,0,.58,0,.78.78,0,0,0,.59-.42,1.1,1.1,0,0,0,.14-.57,1.24,1.24,0,0,0-.11-.54A.73.73,0,0,0,27,15.36Z"/><polygon class="cls-3" points="24.53 16.15 24.42 16.07 24.35 16.01 24.3 15.95 24.24 15.88 24.19 15.82 24.15 15.76 24.15 16.17 24.15 16.23 24.49 16.23 24.66 16.22 24.53 16.15"/><polygon class="cls-3" points="21.8 15.9 23.66 15.9 23.66 15.24 21.8 15.24 21.8 14.54 23.93 14.54 23.93 13.89 20.98 13.89 20.98 17.36 24 17.36 24 16.69 21.8 16.69 21.8 15.9"/><path class="cls-3" d="M20.41,16.49a1,1,0,0,0-.1-.24,1,1,0,0,0-.19-.24,1.49,1.49,0,0,0-.33-.15.91.91,0,0,0,.7-1,1,1,0,0,0-.11-.45.92.92,0,0,0-.32-.33A2.28,2.28,0,0,0,19,13.89H17.21v3.47H18V16h.62a1.4,1.4,0,0,1,.61.1.59.59,0,0,1,.26.26,1.4,1.4,0,0,1,.11.46c0,.25.06.41.08.5h.87a3.68,3.68,0,0,1-.09-.53A2.11,2.11,0,0,0,20.41,16.49Zm-.95-1.15a.76.76,0,0,1-.39.08H18V14.5h1.08a1.05,1.05,0,0,1,.3,0,.38.38,0,0,1,.26.41A.43.43,0,0,1,19.46,15.34Z"/><path class="cls-3" d="M15.85,14a3.26,3.26,0,0,0-.75-.06H12.38L11.48,15l-.83-1.14H6.81v3.47h3.76l.91-1.19.92,1.19H14V16.14h1.32a2,2,0,0,0,.54-.05,1,1,0,0,0,.36-.18,1.14,1.14,0,0,0,.3-.39,1.26,1.26,0,0,0,.11-.51,1.09,1.09,0,0,0-.17-.58A1,1,0,0,0,15.85,14ZM10,16.7H7.63V15.9H9.5v-.66H7.63v-.7H9.77v-.39l1.16,1.45Zm3.13.3L12,15.6l1.14-1.37Zm2.37-1.56a.79.79,0,0,1-.43.09H14v-1h1.14a1.05,1.05,0,0,1,.31,0,.44.44,0,0,1,.28.45A.53.53,0,0,1,15.54,15.44Z"/><polygon class="cls-3" points="10.02 15.24 10.02 15.94 10.3 15.59 10.02 15.24"/><path class="cls-3" d="M38,0H2A2,2,0,0,0,0,1.89V10L1.19,7.18H2.73l.9,2.14V7.18H5.81L6.55,9l.77-1.86H15.7l.19,0,.18,0,.17,0,.17,0,.15.06.14.06.08,0,.08,0,.07.06.06,0V7.18h1.76v.56l0,0,.1-.09.1-.08.1-.07.11-.06.12-.06.12,0,.12,0,.13,0,.13,0,.14,0h3.59l1,2.43V7.18h1.77l.61,1.11V7.18h1.73v4.46H26.94l-.65-1.14v1.14H23.45l-.34-.8h-.69l-.34.8H19.69l-.2,0-.2-.07-.19-.1-.17-.12-.16-.13,0,0v.54H15.67l-.13-.39,0-.06v-.14l0-.08v-.53h-.73v1.31h-7V11l-.28.65H5.72l-.21-.52v.52H2.64l-.34-.8H1.61l-.34.8H0v8.47A2,2,0,0,0,2,22H38a2,2,0,0,0,2-2V2A2,2,0,0,0,38,0Zm1,20a1,1,0,0,1-1,1H31V17.46l0,0-.12.09-.12.08-.14.07-.14,0-.14,0H27.5v-.3l0,0-.13.08-.13.07-.15,0-.13,0H19.29l-.12-.41v-.06l0-.07v-.68h-.54v1.32H16.71V16.12l-.05.05-.06.06-.07.06-.06.05-.07,0-.06,0-.07,0-.07,0-.07,0-.08,0-.07,0-.07,0h-1.4v1.21H12.17L11.5,17l-.66.87H6.34V13.38h4.58l.59.81.64-.81h3.66l.09,0,.1,0,.14,0,.13.05.12.08.12.08.11.09.09.1v-.54h2.66l.18,0,.17,0,.16,0,.15,0,.14.06.13.06.09.06.07.05h0v-.36h4v.33l.09-.07.13-.08.13-.06.14-.05.14,0,.15,0h2.67v.32l.08-.06.13-.08.13-.06.14-.05.14,0,.14,0H31V1h7a1,1,0,0,1,1,1Z"/></g></g></svg>