<svg xmlns="http://www.w3.org/2000/svg" viewBox="0 0 40 22"><defs><style>.cls-1{fill:#fff;}.cls-2{fill:#000100;}</style></defs><g id="Camada_2" data-name="Camada 2"><g id="Camada_1-2" data-name="Camada 1"><rect class="cls-1" width="40" height="22" rx="2"/><rect class="cls-2" x="4.39" y="4.04" width="0.71" height="13.93"/><rect class="cls-2" x="34.91" y="4.04" width="0.71" height="13.93"/><rect class="cls-2" x="5.36" y="4.04" width="0.44" height="13.93"/><rect class="cls-2" x="6.52" y="4.04" width="1.42" height="6.21"/><rect class="cls-2" x="14.5" y="4.04" width="1.42" height="6.21"/><rect class="cls-2" x="28.78" y="4.04" width="1.42" height="6.21"/><rect class="cls-2" x="8.46" y="4.04" width="0.44" height="6.21"/><rect class="cls-2" x="19.55" y="4.04" width="0.35" height="6.21"/><rect class="cls-2" x="22.75" y="4.04" width="0.35" height="6.21"/><rect class="cls-2" x="26.21" y="4.04" width="0.35" height="6.21"/><rect class="cls-2" x="33.92" y="4.04" width="0.35" height="6.21"/><rect class="cls-2" x="9.36" y="4.04" width="0.8" height="6.21"/><rect class="cls-2" x="12.29" y="4.04" width="0.8" height="6.21"/><rect class="cls-2" x="20.53" y="4.04" width="0.8" height="6.21"/><rect class="cls-2" x="26.92" y="4.04" width="0.8" height="6.21"/><rect class="cls-2" x="31.61" y="4.04" width="0.8" height="6.21"/><rect class="cls-2" x="23.46" y="4.04" width="0.8" height="6.21"/><rect class="cls-2" x="17.25" y="4.04" width="0.8" height="6.21"/><rect class="cls-2" x="10.96" y="4.04" width="0.44" height="6.21"/><rect class="cls-2" x="13.34" y="4.04" width="0.44" height="6.21"/><rect class="cls-2" x="18.85" y="4.04" width="0.44" height="6.21"/><rect class="cls-2" x="22.13" y="4.04" width="0.44" height="6.21"/><rect class="cls-2" x="24.52" y="4.04" width="0.44" height="6.21"/><rect class="cls-2" x="27.89" y="4.04" width="0.44" height="6.21"/><rect class="cls-2" x="33.22" y="4.04" width="0.44" height="6.21"/><rect class="cls-2" x="30.73" y="4.04" width="0.44" height="6.21"/><rect class="cls-2" x="25.59" y="4.04" width="0.44" height="6.21"/><rect class="cls-2" x="16.37" y="4.04" width="0.44" height="6.21"/><rect class="cls-2" x="11.58" y="4.04" width="0.44" height="6.21"/><path class="cls-2" d="M6.53,17.63V10.54H9.19a3.33,3.33,0,0,1,1.3.21,1.68,1.68,0,0,1,.77.67,1.71,1.71,0,0,1,.28.93,1.64,1.64,0,0,1-.24.86,1.85,1.85,0,0,1-.75.65,1.83,1.83,0,0,1,1,.64,1.72,1.72,0,0,1,.35,1.07,2.05,2.05,0,0,1-.21.93,1.88,1.88,0,0,1-.52.66,2.15,2.15,0,0,1-.78.35,4.63,4.63,0,0,1-1.14.12Zm.94-4.11H9a3.7,3.7,0,0,0,.9-.08,1,1,0,0,0,.54-.36,1,1,0,0,0,.18-.62,1.18,1.18,0,0,0-.17-.62.83.83,0,0,0-.48-.36,3.88,3.88,0,0,0-1.08-.1H7.47Zm0,3.27H9.24a4.44,4.44,0,0,0,.63,0,1.62,1.62,0,0,0,.55-.19,1.06,1.06,0,0,0,.35-.4,1.16,1.16,0,0,0,.14-.6,1.12,1.12,0,0,0-.2-.68,1.08,1.08,0,0,0-.56-.42,3.91,3.91,0,0,0-1-.11H7.47Z"/><path class="cls-2" d="M12.74,15.06A2.67,2.67,0,0,1,13.53,13a2.43,2.43,0,0,1,1.62-.57,2.3,2.3,0,0,1,1.73.69A2.63,2.63,0,0,1,17.55,15a3.53,3.53,0,0,1-.29,1.56,2.11,2.11,0,0,1-.87.88,2.52,2.52,0,0,1-1.24.32,2.27,2.27,0,0,1-1.74-.7A2.72,2.72,0,0,1,12.74,15.06Zm.9,0a2.18,2.18,0,0,0,.43,1.48,1.36,1.36,0,0,0,1.08.49,1.38,1.38,0,0,0,1.08-.49A2.23,2.23,0,0,0,16.66,15a2.12,2.12,0,0,0-.43-1.44,1.38,1.38,0,0,0-1.08-.49,1.36,1.36,0,0,0-1.08.49A2.13,2.13,0,0,0,13.64,15.06Z"/><path class="cls-2" d="M18.56,17.63V10.54h.87v7.09Z"/><path class="cls-2" d="M24.29,16l.9.11a2.16,2.16,0,0,1-.79,1.22,2.36,2.36,0,0,1-1.47.44,2.31,2.31,0,0,1-1.78-.7,2.7,2.7,0,0,1-.66-1.94,2.87,2.87,0,0,1,.66-2,2.3,2.3,0,0,1,1.73-.71,2.2,2.2,0,0,1,1.69.7,2.8,2.8,0,0,1,.65,2v.23H21.39a2,2,0,0,0,.47,1.3,1.44,1.44,0,0,0,1.08.45,1.33,1.33,0,0,0,.82-.25A1.73,1.73,0,0,0,24.29,16Zm-2.86-1.41H24.3a1.74,1.74,0,0,0-.33-1,1.31,1.31,0,0,0-1.08-.51,1.39,1.39,0,0,0-1,.4A1.58,1.58,0,0,0,21.43,14.57Z"/><path class="cls-2" d="M28.19,16.85l.12.77a3.29,3.29,0,0,1-.66.08,1.47,1.47,0,0,1-.73-.15.79.79,0,0,1-.37-.4,3.05,3.05,0,0,1-.11-1v-3h-.63v-.68h.63V11.22l.87-.52v1.79h.88v.68h-.88v3a1.49,1.49,0,0,0,.05.48.35.35,0,0,0,.15.17.56.56,0,0,0,.29.07A3.67,3.67,0,0,0,28.19,16.85Z"/><path class="cls-2" d="M28.71,15.06a2.64,2.64,0,0,1,.8-2.11,2.38,2.38,0,0,1,1.61-.57,2.3,2.3,0,0,1,1.73.69A2.63,2.63,0,0,1,33.53,15a3.38,3.38,0,0,1-.3,1.56,2.11,2.11,0,0,1-.87.88,2.52,2.52,0,0,1-1.24.32,2.27,2.27,0,0,1-1.74-.7A2.72,2.72,0,0,1,28.71,15.06Zm.9,0A2.18,2.18,0,0,0,30,16.54a1.36,1.36,0,0,0,1.08.49,1.38,1.38,0,0,0,1.08-.49A2.23,2.23,0,0,0,32.63,15a2.12,2.12,0,0,0-.43-1.44,1.38,1.38,0,0,0-1.08-.49,1.36,1.36,0,0,0-1.08.49A2.13,2.13,0,0,0,29.61,15.06Z"/></g></g></svg>