<svg xmlns="http://www.w3.org/2000/svg" viewBox="0 0 233.23 212.18"><defs><style>.cls-1{fill:none;stroke:#121135;stroke-linecap:round;stroke-linejoin:round;stroke-width:10px;}.cls-2{fill:#121135;}</style></defs><g id="Camada_2" data-name="Camada 2"><g id="Camada_1-2" data-name="Camada 1"><path class="cls-1" d="M167.11,161.86H15a10,10,0,0,1-10-10V15A10,10,0,0,1,15,5H218.23a10,10,0,0,1,10,10V151.86a10,10,0,0,1-10,10H202"/><polyline class="cls-1" points="201.95 161.85 167.28 207.18 167.28 161.85"/><path class="cls-2" d="M56.79,74.64A10.79,10.79,0,1,1,46,85.43,10.79,10.79,0,0,1,56.79,74.64m0-10A20.79,20.79,0,1,0,77.58,85.43,20.81,20.81,0,0,0,56.79,64.64Z"/><path class="cls-2" d="M118.79,74.64A10.79,10.79,0,1,1,108,85.43a10.79,10.79,0,0,1,10.78-10.79m0-10a20.79,20.79,0,1,0,20.79,20.79,20.81,20.81,0,0,0-20.79-20.79Z"/><path class="cls-2" d="M180.79,74.64A10.79,10.79,0,1,1,170,85.43a10.79,10.79,0,0,1,10.78-10.79m0-10a20.79,20.79,0,1,0,20.79,20.79,20.81,20.81,0,0,0-20.79-20.79Z"/></g></g></svg>