<svg xmlns="http://www.w3.org/2000/svg" viewBox="0 0 40 22"><defs><style>.cls-1{fill:#fff;}.cls-2{fill:#211f20;}.cls-3{fill:#077abf;}</style></defs><g id="Camada_2" data-name="Camada 2"><g id="Camada_1-2" data-name="Camada 1"><rect class="cls-1" width="40" height="22" rx="2"/><g id="_Layer_1" data-name=" #Layer_1"><path class="cls-2" d="M15.28,8.35c0-.44-.23-.41-.45-.42V7.8h1.42a1.79,1.79,0,0,1,2,1.72c0,.48-.28,1.7-2,1.7H14.83V11.1c.29,0,.43,0,.45-.38V8.35Zm.48,2.29h0c0,.38.27.43.51.43a1.36,1.36,0,0,0,1.4-1.53A1.47,1.47,0,0,0,16.14,8c-.2,0-.29,0-.38,0v2.66Z"/><path class="cls-2" d="M18.38,11.1h.1c.13,0,.23,0,.23-.17V9.61c0-.22-.07-.25-.25-.35V9.19L19,9l.09,0s0,0,0,.07v1.88c0,.17.11.17.25.17h.08v.12H18.38V11.1Zm.53-2.87h0a.24.24,0,1,1,0-.48.24.24,0,0,1,0,.48Z"/><path class="cls-2" d="M19.9,9.64c0-.19-.06-.23-.29-.33V9.22A5.89,5.89,0,0,0,20.26,9s0,0,0,0v.32A1.45,1.45,0,0,1,21.14,9c.41,0,.56.31.56.69v1.26c0,.17.11.17.24.17H22v.12H21V11.1h.09c.14,0,.24,0,.24-.17V9.67a.39.39,0,0,0-.45-.42,1.37,1.37,0,0,0-.57.23v1.45c0,.17.11.17.24.17h.09v.12H19.57V11.1h.09c.14,0,.24,0,.24-.17V9.64Z"/><path class="cls-2" d="M22.4,9.87a1.18,1.18,0,0,0,0,.28.82.82,0,0,0,.72.85.94.94,0,0,0,.66-.33l.07.07a1.14,1.14,0,0,1-.9.56A1,1,0,0,1,22,10.23,1.1,1.1,0,0,1,23,9a.78.78,0,0,1,.83.77.28.28,0,0,1,0,.09l0,0Zm.87-.16h0c.12,0,.14-.06.14-.12A.41.41,0,0,0,23,9.14c-.3,0-.5.22-.56.57Z"/><path class="cls-2" d="M23.94,11.1h.13c.14,0,.24,0,.24-.17V9.56c0-.15-.18-.18-.26-.22V9.26c.36-.15.56-.28.6-.28s.05,0,.05.07v.44h0c.12-.19.32-.51.62-.51a.27.27,0,0,1,.28.26.23.23,0,0,1-.23.25c-.15,0-.15-.11-.32-.11a.41.41,0,0,0-.36.4v1.15c0,.17.1.17.24.17h.27v.12H23.94V11.1Z"/><path class="cls-2" d="M25.83,10.54a.65.65,0,0,0,.61.6.35.35,0,0,0,.4-.35c0-.58-1.07-.39-1.07-1.18A.68.68,0,0,1,26.53,9a1.27,1.27,0,0,1,.56.15l0,.5H27a.51.51,0,0,0-.53-.49.34.34,0,0,0-.38.32c0,.58,1.13.4,1.13,1.17,0,.32-.26.67-.84.67a1.26,1.26,0,0,1-.6-.17l-.05-.56.09,0Z"/><path class="cls-2" d="M31.65,8.69h-.12a.93.93,0,0,0-1.05-.8A1.39,1.39,0,0,0,29.1,9.44a1.6,1.6,0,0,0,1.46,1.7,1,1,0,0,0,1-.85l.11,0-.11.72a2.91,2.91,0,0,1-1.09.26,1.75,1.75,0,0,1-1.87-1.85,1.8,1.8,0,0,1,1.86-1.72A3.5,3.5,0,0,1,31.6,8l0,.7Z"/><path class="cls-2" d="M31.83,11.1h.09c.14,0,.24,0,.24-.17V8.21c0-.32-.08-.33-.26-.39V7.75a3.62,3.62,0,0,0,.5-.22l.11,0s0,0,0,.07v3.38c0,.17.11.17.24.17h.09v.12H31.83V11.1Z"/><path class="cls-2" d="M35,11c0,.09.06.1.14.1h.2v.1a4.82,4.82,0,0,0-.71.16l0,0v-.4a1.35,1.35,0,0,1-.87.42.54.54,0,0,1-.54-.59V9.46c0-.13,0-.25-.29-.27v-.1l.63,0c.05,0,.05,0,.05.14v1.26c0,.15,0,.57.43.57a1.07,1.07,0,0,0,.59-.3V9.41c0-.09-.23-.15-.41-.2V9.13c.44,0,.72-.07.76-.07s0,0,0,.09V11Z"/><path class="cls-2" d="M36,9.34A1.21,1.21,0,0,1,36.68,9a1,1,0,0,1,.91,1,1.24,1.24,0,0,1-1.17,1.29,1.33,1.33,0,0,1-.68-.18l-.15.12-.1-.06a6.25,6.25,0,0,0,.07-.87V8.21c0-.32-.08-.33-.26-.39V7.75a3.62,3.62,0,0,0,.5-.22l.11,0s0,0,0,.07V9.34Zm0,1.33h0a.53.53,0,0,0,.5.5c.53,0,.75-.52.75-.95a.93.93,0,0,0-.79-1,.75.75,0,0,0-.46.23v1.19Z"/><path class="cls-2" d="M14.82,14.07h0c.1,0,.2,0,.2-.15v-1.4c0-.14-.1-.15-.2-.15h0v-.08h.82v.08h0c-.1,0-.2,0-.2.15v1.4c0,.14.1.15.2.15h0v.08h-.82v-.08Z"/><path class="cls-2" d="M15.64,14.16h-.83v-.08h0c.1,0,.19,0,.19-.14v-1.4c0-.13-.09-.14-.19-.14h0v-.09h.84v.09H15.6c-.1,0-.19,0-.19.14v1.4c0,.13.09.14.19.14h.05v.09Zm0,0h0v-.06h0c-.1,0-.21,0-.21-.16v-1.4c0-.15.11-.16.21-.16h0V12.3h-.79v.06h0c.1,0,.21,0,.21.16v1.4c0,.15-.11.16-.21.16h0v.06h.79Z"/><path class="cls-2" d="M17.47,13.62h0v-1c0-.22-.15-.25-.23-.25h-.06v-.08h.7v.08h0c-.11,0-.24,0-.24.34v1.21a2.28,2.28,0,0,0,0,.27h-.1l-1.37-1.53v1.1c0,.23,0,.31.25.31h0v.08h-.7v-.08h0c.19,0,.24-.13.24-.34V12.61a.24.24,0,0,0-.24-.24h0v-.08h.54l1.19,1.33Z"/><path class="cls-2" d="M17.62,14.2h-.11l-1.35-1.51v1.07c0,.23,0,.3.24.3h.05v.09h-.72v-.09h0c.18,0,.23-.12.23-.33V12.61a.23.23,0,0,0-.23-.23h0v-.09h.57l1.17,1.32v-1c0-.21-.14-.24-.22-.24h-.07v-.09h.72v.09h-.05c-.11,0-.22,0-.22.33v1.21a2.35,2.35,0,0,0,0,.27h0Zm-.1,0h.09a2.11,2.11,0,0,1,0-.26V12.71c0-.32.14-.35.25-.35h0V12.3h-.68v.06h0a.23.23,0,0,1,.24.26v1h0L16.28,12.3h-.53v.06h0a.25.25,0,0,1,.26.25v1.12c0,.21-.06.35-.26.35h0v.06h.68v-.06h0c-.21,0-.26-.09-.26-.32V12.63l1.38,1.55Zm-.05-.56Zm0,0Z"/><path class="cls-2" d="M18.28,12.42c-.2,0-.21.05-.25.25H18c0-.08,0-.15,0-.23a1.77,1.77,0,0,0,0-.23h.07c0,.08.08.08.16.08H19.6c.07,0,.14,0,.14-.08h.07l0,.21a1.7,1.7,0,0,0,0,.22l-.08,0c0-.1,0-.26-.19-.26h-.44v1.42c0,.21.09.23.22.23h0v.08h-.88v-.08h.05c.14,0,.22,0,.22-.22V12.42Z"/><path class="cls-2" d="M19.33,14.16h-.9v-.09h.07c.14,0,.2,0,.21-.21V12.43h0v1.44c0,.21-.09.23-.23.23h0v.06h.86v-.06h0c-.13,0-.23,0-.23-.24V12.41h.45c.18,0,.2.15.2.25l.06,0a1.48,1.48,0,0,1,0-.21,1.36,1.36,0,0,1,0-.2h0c0,.08-.08.08-.15.08H18.21c-.06,0-.13,0-.15-.08h0a1.55,1.55,0,0,1,0,.22l0,.21H18c0-.18.06-.24.26-.24h0c-.2,0-.19,0-.24.24h-.1v0a1.66,1.66,0,0,0,0-.22,1.79,1.79,0,0,0,0-.23h.09c0,.07.06.07.13.07H19.6c.07,0,.13,0,.13-.07v0h.09l0,.21a1.7,1.7,0,0,0,0,.22h0l-.1,0v0c0-.1,0-.25-.18-.25h-.43v1.41c0,.2.08.22.21.22h.06v.09Z"/><path class="cls-2" d="M19.89,14.07h0c.1,0,.2,0,.2-.15v-1.4c0-.14-.1-.15-.2-.15h0v-.08h1.35c0,.11,0,.29,0,.41l-.08,0c0-.17,0-.31-.32-.31h-.37v.7h.32c.16,0,.19-.1.21-.24h.08c0,.11,0,.21,0,.31s0,.21,0,.31H21c0-.16,0-.26-.21-.26h-.32v.62c0,.17.15.17.32.17.32,0,.46,0,.54-.32l.08,0a3.15,3.15,0,0,0-.09.42H19.89v-.08Z"/><path class="cls-2" d="M21.32,14.16H19.88v-.08h.05c.1,0,.18,0,.19-.14v-1.4c0-.13-.09-.14-.19-.14h-.05v-.09h1.37v.41h0l-.1,0h0c0-.17,0-.3-.31-.3h-.36v.67h.31c.15,0,.18-.08.19-.22h.11c0,.11,0,.21,0,.31s0,.2,0,.31h0l-.09,0v0c0-.16,0-.25-.19-.25h-.31v.61c0,.16.14.16.31.16.32,0,.45,0,.53-.32h0l.08,0h0c0,.14-.07.28-.09.42h0Zm0,0h0c0-.14.05-.27.08-.41h-.05c-.08.3-.23.33-.55.32-.16,0-.33,0-.33-.18v-.63h.33c.18,0,.2.11.22.26h0v-.6h0c0,.14-.06.24-.22.24h-.33V12.4h.38c.28,0,.32.14.33.3h.06c0-.08,0-.17,0-.26a.53.53,0,0,1,0-.13H19.9v.06h0c.09,0,.21,0,.21.16v1.4c0,.14-.12.16-.21.16h0v.06h1.41Z"/><path class="cls-2" d="M21.77,12.57c0-.19-.11-.2-.19-.2h0v-.08h.84c.34,0,.64.09.64.47a.5.5,0,0,1-.37.47l.45.68a.32.32,0,0,0,.26.16v.08h-.51a8.46,8.46,0,0,1-.56-.86h-.17v.57c0,.2.09.21.22.21h.05v.08h-.85v-.08h0c.1,0,.19,0,.19-.14V12.57Zm.34.62h.13c.27,0,.41-.1.41-.42a.36.36,0,0,0-.39-.38h-.15v.79Z"/><path class="cls-2" d="M23.35,14.16h-.52a8.39,8.39,0,0,1-.55-.86h-.16v.56c0,.2.08.2.21.2h.06v.09h-.87v-.09h.06c.09,0,.18,0,.18-.13V12.57c0-.19-.1-.19-.18-.19h-.06v-.09h.85c.34,0,.65.09.65.48a.5.5,0,0,1-.37.47l.45.67a.3.3,0,0,0,.25.16h0v.09Zm-1.24-.89h.18a9.05,9.05,0,0,0,.55.86h.5v-.06a.32.32,0,0,1-.26-.16l-.46-.7h0a.51.51,0,0,0,.37-.46c0-.37-.29-.46-.63-.46h-.83v.06h0c.08,0,.2,0,.2.21v1.36c0,.1-.1.15-.2.15h0v.06h.82v-.06h0c-.12,0-.23,0-.23-.22v-.59Zm0-.07h0v-.81h.16a.38.38,0,0,1,.4.41c0,.31-.15.42-.42.42Zm.13,0h0c.26,0,.4-.1.4-.4a.35.35,0,0,0-.38-.38h-.14v.77Z"/><path class="cls-2" d="M25.16,13.62h0v-1c0-.22-.15-.25-.23-.25h-.06v-.08h.71v.08h0c-.12,0-.24,0-.24.34v1.21a2.35,2.35,0,0,0,0,.27h-.1l-1.37-1.53v1.1c0,.23.05.31.25.31h.05v.08h-.71v-.08h0c.18,0,.24-.13.24-.34V12.61a.24.24,0,0,0-.24-.24h0v-.08H24l1.19,1.33Z"/><path class="cls-2" d="M25.31,14.2H25.2l-1.35-1.51v1.07c0,.23,0,.3.24.3h.06v.09h-.73v-.09h0c.17,0,.22-.12.23-.33V12.61a.23.23,0,0,0-.23-.23h0v-.09H24l1.17,1.32v-1c0-.21-.14-.24-.22-.24h-.07v-.09h.73v.09h-.05c-.11,0-.23,0-.23.33v1.21a1.18,1.18,0,0,0,0,.27h0Zm-.1,0h.09a2.17,2.17,0,0,1,0-.26V12.71c0-.32.13-.35.25-.35h0V12.3h-.67v.06h0a.23.23,0,0,1,.25.26v1h0L24,12.3h-.53v.06h0a.25.25,0,0,1,.25.25v1.12c0,.22-.06.35-.25.35h0v.06h.68v-.06h0c-.21,0-.26-.09-.26-.32V12.63l1.38,1.55Zm-.05-.56Zm0,0Z"/><path class="cls-2" d="M26,13.77a1.89,1.89,0,0,0-.06.21c0,.08.12.09.2.09h0v.08h-.61v-.08h0a.24.24,0,0,0,.23-.17l.43-1.23a3.18,3.18,0,0,0,.1-.33l.24-.11h0s0,0,0,.07l.49,1.39c0,.09.07.19.1.27a.17.17,0,0,0,.18.11h0v.08h-.76v-.08h0c.06,0,.16,0,.16-.08a.88.88,0,0,0-.05-.19l-.11-.31h-.6l-.09.28Zm.39-1.18h0l-.25.75h.5Z"/><path class="cls-2" d="M27.42,14.16h-.78v-.09h.05c.06,0,.15,0,.15-.07a.88.88,0,0,0-.05-.19l-.11-.3H26.1l-.09.27A1.49,1.49,0,0,0,26,14c0,.06.1.08.18.08h.05v.09h-.64v-.09h0a.23.23,0,0,0,.22-.17l.43-1.22a3.37,3.37,0,0,0,.1-.34,1.38,1.38,0,0,0,.24-.11h0s0,0,0,0a.14.14,0,0,1,0,.06l.49,1.4c0,.09.07.19.1.27a.16.16,0,0,0,.17.1h0v.09Zm-.75,0h.74v-.06h0a.18.18,0,0,1-.19-.11l-.1-.27-.49-1.4s0,0,0-.06h0a1,1,0,0,1-.23.1,3.37,3.37,0,0,1-.1.34l-.43,1.22a.24.24,0,0,1-.24.18h0v.06h.58v-.06h0c-.08,0-.2,0-.21-.1a1.43,1.43,0,0,1,.06-.21h0l.09-.29h.62l.11.32a.67.67,0,0,1,.05.19c0,.08-.11.09-.17.09h0v.06Zm-.55-.79h0l.26-.77h0l.25.77Zm0,0h.46l-.23-.71Zm.22-.74Z"/><path class="cls-2" d="M27.54,12.42c-.2,0-.21.05-.25.25h-.08c0-.08,0-.15,0-.23a1.77,1.77,0,0,0,0-.23h.07c0,.08.08.08.15.08h1.38c.07,0,.14,0,.14-.08h.07l0,.21a1.7,1.7,0,0,0,0,.22l-.08,0c0-.1,0-.26-.19-.26h-.44v1.42c0,.21.09.23.22.23h.05v.08h-.88v-.08h.05c.14,0,.22,0,.22-.22V12.42Z"/><path class="cls-2" d="M28.59,14.16h-.9v-.09h.07c.14,0,.2,0,.21-.21V12.43h0v1.44c0,.21-.09.23-.23.23h0v.06h.86v-.06h0c-.13,0-.23,0-.23-.24V12.41h.45c.17,0,.2.15.2.25l.06,0a1.48,1.48,0,0,1,0-.21,1.36,1.36,0,0,1,0-.2h0c0,.08-.08.08-.15.08H27.47c-.06,0-.13,0-.15-.08h-.05a1.55,1.55,0,0,1,0,.22l0,.21h.05c0-.18.06-.24.26-.24h0c-.2,0-.19,0-.24.24h-.1v0a1.66,1.66,0,0,0,0-.22,1.79,1.79,0,0,0,0-.23h.09c0,.07.06.07.13.07h1.39c.07,0,.13,0,.13-.07v0h.09l0,.21a1.7,1.7,0,0,0,0,.22h0l-.1,0v0c0-.1,0-.25-.18-.25h-.43v1.41c0,.2.08.22.21.22h.06v.09Z"/><path class="cls-2" d="M29.17,14.07h0c.1,0,.2,0,.2-.15v-1.4c0-.14-.1-.15-.2-.15h0v-.08H30v.08h0c-.09,0-.2,0-.2.15v1.4c0,.14.11.15.2.15h0v.08h-.81v-.08Z"/><path class="cls-2" d="M30,14.16h-.83v-.08h.05c.1,0,.19,0,.19-.14v-1.4c0-.13-.09-.14-.19-.14h-.05v-.09H30v.09h0c-.1,0-.18,0-.18.14v1.4c0,.13.08.14.18.14h0v.09Zm0,0h0v-.06h0c-.09,0-.21,0-.21-.16v-1.4c0-.15.12-.16.21-.16h0V12.3h-.79v.06h0c.1,0,.21,0,.21.16v1.4c0,.14-.11.16-.21.16h0v.06H30Z"/><path class="cls-2" d="M31,12.25a.93.93,0,0,1,1,.92,1,1,0,0,1-1,1,.94.94,0,0,1-1-1,1,1,0,0,1,1-1Zm0,1.82h0c.52,0,.61-.45.61-.84s-.21-.86-.65-.86-.61.41-.61.77.22.93.65.93Z"/><path class="cls-2" d="M30.05,13.23a1,1,0,0,1,1-1h0a1,1,0,0,0-1,1,.93.93,0,0,0,1,.95,1,1,0,0,0,1-1,.93.93,0,0,0-1-.91h0a.94.94,0,0,1,1,.93,1,1,0,0,1-1,1,1,1,0,0,1-1-1Zm.37-.09h0c0-.36.14-.78.62-.78s.66.48.66.87-.09.85-.62.85h0c.51,0,.6-.44.6-.83s-.21-.85-.64-.85-.6.4-.6.76.22.92.64.92h0c-.44,0-.66-.46-.66-.94Z"/><path class="cls-2" d="M33.86,13.62h0v-1c0-.22-.15-.25-.23-.25h-.06v-.08h.7v.08h0c-.11,0-.23,0-.23.34v1.21a2.35,2.35,0,0,0,0,.27h-.1l-1.37-1.53v1.1c0,.23,0,.31.25.31h0v.08h-.7v-.08h0c.18,0,.23-.13.23-.34V12.61a.24.24,0,0,0-.24-.24h0v-.08h.54l1.19,1.33Z"/><path class="cls-2" d="M34,14.2H33.9l-1.35-1.51v1.07c0,.23,0,.3.24.3h.06v.09h-.73v-.09h.05c.17,0,.22-.12.22-.33V12.61a.23.23,0,0,0-.23-.23h0v-.09h.56l1.17,1.32v-1c0-.21-.14-.24-.22-.24h-.07v-.09h.72v.09h-.05c-.11,0-.22,0-.22.33v1.21a2.35,2.35,0,0,0,0,.27h0Zm-.1,0H34a2.11,2.11,0,0,1,0-.26V12.71c0-.32.14-.35.25-.35h0V12.3h-.68v.06h.05a.23.23,0,0,1,.24.26v1h0L32.67,12.3h-.53v.06h0a.25.25,0,0,1,.26.25v1.12c0,.21-.06.35-.25.35h0v.06h.68v-.06h0c-.21,0-.26-.09-.26-.32V12.63l1.38,1.55Zm0-.56Zm0,0Z"/><path class="cls-2" d="M34.7,13.77a.87.87,0,0,0-.06.21c0,.08.11.09.2.09h0v.08h-.61v-.08h0a.24.24,0,0,0,.23-.17l.43-1.23a1.78,1.78,0,0,0,.09-.33l.25-.11h0a.19.19,0,0,0,0,.07l.49,1.39a2.15,2.15,0,0,0,.1.27.17.17,0,0,0,.18.11h0v.08h-.77v-.08h0c.06,0,.17,0,.17-.08a1.18,1.18,0,0,0-.06-.19l-.1-.31h-.6l-.09.28Zm.39-1.18h0l-.25.75h.5Z"/><path class="cls-2" d="M36.12,14.16h-.78v-.09h0c.07,0,.16,0,.16-.07a1.18,1.18,0,0,0-.06-.19l-.1-.3h-.59l-.08.27a1.89,1.89,0,0,0-.06.21c0,.06.1.08.19.08h0v.09h-.63v-.09h0a.23.23,0,0,0,.22-.17l.42-1.22a1.93,1.93,0,0,0,.11-.34l.24-.11h0s0,0,0,0,0,0,0,.06l.49,1.4.1.27a.15.15,0,0,0,.16.1h0v.09Zm-.75,0h.74v-.06h0c-.1,0-.16,0-.19-.11a2.15,2.15,0,0,1-.1-.27l-.49-1.4a.14.14,0,0,1,0-.06h0a1.22,1.22,0,0,1-.23.1,3.37,3.37,0,0,1-.1.34l-.43,1.22a.24.24,0,0,1-.24.18h0v.06h.59v-.06h0c-.08,0-.21,0-.21-.1a.76.76,0,0,1,.06-.21h0l.09-.29h.62l.11.32a.67.67,0,0,1,.05.19c0,.08-.12.09-.18.09h0v.06Zm-.55-.79h0l.26-.77h0l.25.77Zm0,0h.47l-.23-.71-.24.71Zm.23-.74Z"/><path class="cls-2" d="M36.79,13.89c0,.11.08.14.16.15a1.38,1.38,0,0,0,.35,0,.35.35,0,0,0,.26-.14.52.52,0,0,0,.08-.19h.08c0,.15-.07.3-.1.45H36.21v-.08h0c.1,0,.2,0,.2-.18V12.52c0-.14-.1-.15-.2-.15h0v-.08H37v.08H37c-.1,0-.18,0-.18.14v1.38Z"/><path class="cls-2" d="M37.62,14.16H36.2v-.09h0c.1,0,.19,0,.19-.17V12.52c0-.13-.09-.14-.19-.14h0v-.09h.85v.09H37c-.1,0-.16,0-.17.13v1.38c0,.1.07.12.15.14h.35a.35.35,0,0,0,.25-.14.46.46,0,0,0,.08-.19h.1c0,.15-.07.3-.1.45h0Zm0,0h0c0-.15.07-.29.1-.43h-.06a.77.77,0,0,1-.08.19.41.41,0,0,1-.27.14l-.2,0H37c-.09,0-.17-.05-.17-.16V12.51c0-.14.09-.15.19-.15H37V12.3h-.8v.06h0c.1,0,.21,0,.21.16v1.37c0,.17-.11.19-.21.19h0v.06h1.38Z"/><path class="cls-2" d="M37.69,12.21a.29.29,0,1,1-.28.29A.28.28,0,0,1,37.69,12.21Zm0,.51h0a.22.22,0,0,0,.22-.22.23.23,0,1,0-.22.22Zm-.14-.08h0s0,0,0,0v-.2s0,0,0,0h.14c.05,0,.1,0,.1.07a.08.08,0,0,1-.07.08l.05.07a.17.17,0,0,0,.06.06h-.06s-.05-.05-.1-.13h0v.1s0,0,0,0h-.13Zm.09-.14h0s0,0,0-.08a.06.06,0,0,0-.06-.06h0Z"/><path class="cls-2" d="M15.28,8.35c0-.44-.23-.41-.45-.42V7.8h1.42a1.79,1.79,0,0,1,2,1.72c0,.48-.28,1.7-2,1.7H14.83V11.1c.29,0,.43,0,.45-.38V8.35Zm.48,2.29h0c0,.38.27.43.51.43a1.36,1.36,0,0,0,1.4-1.53A1.47,1.47,0,0,0,16.14,8c-.2,0-.29,0-.38,0v2.66Z"/><path class="cls-2" d="M18.38,11.1h.1c.13,0,.23,0,.23-.17V9.61c0-.22-.07-.25-.25-.35V9.19L19,9l.09,0s0,0,0,.07v1.88c0,.17.11.17.25.17h.08v.12H18.38V11.1Zm.53-2.87h0a.24.24,0,1,1,0-.48.24.24,0,0,1,0,.48Z"/><path class="cls-2" d="M19.9,9.64c0-.19-.06-.23-.29-.33V9.22A5.89,5.89,0,0,0,20.26,9s0,0,0,0v.32A1.45,1.45,0,0,1,21.14,9c.41,0,.56.31.56.69v1.26c0,.17.11.17.24.17H22v.12H21V11.1h.09c.14,0,.24,0,.24-.17V9.67a.39.39,0,0,0-.45-.42,1.37,1.37,0,0,0-.57.23v1.45c0,.17.11.17.24.17h.09v.12H19.57V11.1h.09c.14,0,.24,0,.24-.17V9.64Z"/><path class="cls-2" d="M22.4,9.87a1.18,1.18,0,0,0,0,.28.82.82,0,0,0,.72.85.94.94,0,0,0,.66-.33l.07.07a1.14,1.14,0,0,1-.9.56A1,1,0,0,1,22,10.23,1.1,1.1,0,0,1,23,9a.78.78,0,0,1,.83.77.28.28,0,0,1,0,.09l0,0Zm.87-.16h0c.12,0,.14-.06.14-.12A.41.41,0,0,0,23,9.14c-.3,0-.5.22-.56.57Z"/><path class="cls-2" d="M23.94,11.1h.13c.14,0,.24,0,.24-.17V9.56c0-.15-.18-.18-.26-.22V9.26c.36-.15.56-.28.6-.28s.05,0,.05.07v.44h0c.12-.19.32-.51.62-.51a.27.27,0,0,1,.28.26.23.23,0,0,1-.23.25c-.15,0-.15-.11-.32-.11a.41.41,0,0,0-.36.4v1.15c0,.17.1.17.24.17h.27v.12H23.94V11.1Z"/><path class="cls-2" d="M25.83,10.54a.65.65,0,0,0,.61.6.35.35,0,0,0,.4-.35c0-.58-1.07-.39-1.07-1.18A.68.68,0,0,1,26.53,9a1.27,1.27,0,0,1,.56.15l0,.5H27a.51.51,0,0,0-.53-.49.34.34,0,0,0-.38.32c0,.58,1.13.4,1.13,1.17,0,.32-.26.67-.84.67a1.26,1.26,0,0,1-.6-.17l-.05-.56.09,0Z"/><path class="cls-2" d="M31.65,8.69h-.12a.93.93,0,0,0-1.05-.8A1.39,1.39,0,0,0,29.1,9.44a1.6,1.6,0,0,0,1.46,1.7,1,1,0,0,0,1-.85l.11,0-.11.72a2.91,2.91,0,0,1-1.09.26,1.75,1.75,0,0,1-1.87-1.85,1.8,1.8,0,0,1,1.86-1.72A3.5,3.5,0,0,1,31.6,8l0,.7Z"/><path class="cls-2" d="M31.83,11.1h.09c.14,0,.24,0,.24-.17V8.21c0-.32-.08-.33-.26-.39V7.75a3.62,3.62,0,0,0,.5-.22l.11,0s0,0,0,.07v3.38c0,.17.11.17.24.17h.09v.12H31.83V11.1Z"/><path class="cls-2" d="M35,11c0,.09.06.1.14.1h.2v.1a4.82,4.82,0,0,0-.71.16l0,0v-.4a1.35,1.35,0,0,1-.87.42.54.54,0,0,1-.54-.59V9.46c0-.13,0-.25-.29-.27v-.1l.63,0c.05,0,.05,0,.05.14v1.26c0,.15,0,.57.43.57a1.07,1.07,0,0,0,.59-.3V9.41c0-.09-.23-.15-.41-.2V9.13c.44,0,.72-.07.76-.07s0,0,0,.09V11Z"/><path class="cls-2" d="M36,9.34A1.21,1.21,0,0,1,36.68,9a1,1,0,0,1,.91,1,1.24,1.24,0,0,1-1.17,1.29,1.33,1.33,0,0,1-.68-.18l-.15.12-.1-.06a6.25,6.25,0,0,0,.07-.87V8.21c0-.32-.08-.33-.26-.39V7.75a3.62,3.62,0,0,0,.5-.22l.11,0s0,0,0,.07V9.34Zm0,1.33h0a.53.53,0,0,0,.5.5c.53,0,.75-.52.75-.95a.93.93,0,0,0-.79-1,.75.75,0,0,0-.46.23v1.19Z"/><path class="cls-2" d="M14.82,14.07h0c.1,0,.2,0,.2-.15v-1.4c0-.14-.1-.15-.2-.15h0v-.08h.82v.08h0c-.1,0-.2,0-.2.15v1.4c0,.14.1.15.2.15h0v.08h-.82v-.08Z"/><path class="cls-2" d="M15.64,14.16h-.83v-.08h0c.1,0,.19,0,.19-.14v-1.4c0-.13-.09-.14-.19-.14h0v-.09h.84v.09H15.6c-.1,0-.19,0-.19.14v1.4c0,.13.09.14.19.14h.05v.09Zm0,0h0v-.06h0c-.1,0-.21,0-.21-.16v-1.4c0-.15.11-.16.21-.16h0V12.3h-.79v.06h0c.1,0,.21,0,.21.16v1.4c0,.15-.11.16-.21.16h0v.06h.79Z"/><path class="cls-2" d="M17.47,13.62h0v-1c0-.22-.15-.25-.23-.25h-.06v-.08h.7v.08h0c-.11,0-.24,0-.24.34v1.21a2.28,2.28,0,0,0,0,.27h-.1l-1.37-1.53v1.1c0,.23,0,.31.25.31h0v.08h-.7v-.08h0c.19,0,.24-.13.24-.34V12.61a.24.24,0,0,0-.24-.24h0v-.08h.54l1.19,1.33Z"/><path class="cls-2" d="M17.62,14.2h-.11l-1.35-1.51v1.07c0,.23,0,.3.24.3h.05v.09h-.72v-.09h0c.18,0,.23-.12.23-.33V12.61a.23.23,0,0,0-.23-.23h0v-.09h.57l1.17,1.32v-1c0-.21-.14-.24-.22-.24h-.07v-.09h.72v.09h-.05c-.11,0-.22,0-.22.33v1.21a2.35,2.35,0,0,0,0,.27h0Zm-.1,0h.09a2.11,2.11,0,0,1,0-.26V12.71c0-.32.14-.35.25-.35h0V12.3h-.68v.06h0a.23.23,0,0,1,.24.26v1h0L16.28,12.3h-.53v.06h0a.25.25,0,0,1,.26.25v1.12c0,.21-.06.35-.26.35h0v.06h.68v-.06h0c-.21,0-.26-.09-.26-.32V12.63l1.38,1.55Zm-.05-.56Zm0,0Z"/><path class="cls-2" d="M18.28,12.42c-.2,0-.21.05-.25.25H18c0-.08,0-.15,0-.23a1.77,1.77,0,0,0,0-.23h.07c0,.08.08.08.16.08H19.6c.07,0,.14,0,.14-.08h.07l0,.21a1.7,1.7,0,0,0,0,.22l-.08,0c0-.1,0-.26-.19-.26h-.44v1.42c0,.21.09.23.22.23h0v.08h-.88v-.08h.05c.14,0,.22,0,.22-.22V12.42Z"/><path class="cls-2" d="M19.33,14.16h-.9v-.09h.07c.14,0,.2,0,.21-.21V12.43h0v1.44c0,.21-.09.23-.23.23h0v.06h.86v-.06h0c-.13,0-.23,0-.23-.24V12.41h.45c.18,0,.2.15.2.25l.06,0a1.48,1.48,0,0,1,0-.21,1.36,1.36,0,0,1,0-.2h0c0,.08-.08.08-.15.08H18.21c-.06,0-.13,0-.15-.08h0a1.55,1.55,0,0,1,0,.22l0,.21H18c0-.18.06-.24.26-.24h0c-.2,0-.19,0-.24.24h-.1v0a1.66,1.66,0,0,0,0-.22,1.79,1.79,0,0,0,0-.23h.09c0,.07.06.07.13.07H19.6c.07,0,.13,0,.13-.07v0h.09l0,.21a1.7,1.7,0,0,0,0,.22h0l-.1,0v0c0-.1,0-.25-.18-.25h-.43v1.41c0,.2.08.22.21.22h.06v.09Z"/><path class="cls-2" d="M19.89,14.07h0c.1,0,.2,0,.2-.15v-1.4c0-.14-.1-.15-.2-.15h0v-.08h1.35c0,.11,0,.29,0,.41l-.08,0c0-.17,0-.31-.32-.31h-.37v.7h.32c.16,0,.19-.1.21-.24h.08c0,.11,0,.21,0,.31s0,.21,0,.31H21c0-.16,0-.26-.21-.26h-.32v.62c0,.17.15.17.32.17.32,0,.46,0,.54-.32l.08,0a3.15,3.15,0,0,0-.09.42H19.89v-.08Z"/><path class="cls-2" d="M21.32,14.16H19.88v-.08h.05c.1,0,.18,0,.19-.14v-1.4c0-.13-.09-.14-.19-.14h-.05v-.09h1.37v.41h0l-.1,0h0c0-.17,0-.3-.31-.3h-.36v.67h.31c.15,0,.18-.08.19-.22h.11c0,.11,0,.21,0,.31s0,.2,0,.31h0l-.09,0v0c0-.16,0-.25-.19-.25h-.31v.61c0,.16.14.16.31.16.32,0,.45,0,.53-.32h0l.08,0h0c0,.14-.07.28-.09.42h0Zm0,0h0c0-.14.05-.27.08-.41h-.05c-.08.3-.23.33-.55.32-.16,0-.33,0-.33-.18v-.63h.33c.18,0,.2.11.22.26h0v-.6h0c0,.14-.06.24-.22.24h-.33V12.4h.38c.28,0,.32.14.33.3h.06c0-.08,0-.17,0-.26a.53.53,0,0,1,0-.13H19.9v.06h0c.09,0,.21,0,.21.16v1.4c0,.14-.12.16-.21.16h0v.06h1.41Z"/><path class="cls-2" d="M21.77,12.57c0-.19-.11-.2-.19-.2h0v-.08h.84c.34,0,.64.09.64.47a.5.5,0,0,1-.37.47l.45.68a.32.32,0,0,0,.26.16v.08h-.51a8.46,8.46,0,0,1-.56-.86h-.17v.57c0,.2.09.21.22.21h.05v.08h-.85v-.08h0c.1,0,.19,0,.19-.14V12.57Zm.34.62h.13c.27,0,.41-.1.41-.42a.36.36,0,0,0-.39-.38h-.15v.79Z"/><path class="cls-2" d="M23.35,14.16h-.52a8.39,8.39,0,0,1-.55-.86h-.16v.56c0,.2.08.2.21.2h.06v.09h-.87v-.09h.06c.09,0,.18,0,.18-.13V12.57c0-.19-.1-.19-.18-.19h-.06v-.09h.85c.34,0,.65.09.65.48a.5.5,0,0,1-.37.47l.45.67a.3.3,0,0,0,.25.16h0v.09Zm-1.24-.89h.18a9.05,9.05,0,0,0,.55.86h.5v-.06a.32.32,0,0,1-.26-.16l-.46-.7h0a.51.51,0,0,0,.37-.46c0-.37-.29-.46-.63-.46h-.83v.06h0c.08,0,.2,0,.2.21v1.36c0,.1-.1.15-.2.15h0v.06h.82v-.06h0c-.12,0-.23,0-.23-.22v-.59Zm0-.07h0v-.81h.16a.38.38,0,0,1,.4.41c0,.31-.15.42-.42.42Zm.13,0h0c.26,0,.4-.1.4-.4a.35.35,0,0,0-.38-.38h-.14v.77Z"/><path class="cls-2" d="M25.16,13.62h0v-1c0-.22-.15-.25-.23-.25h-.06v-.08h.71v.08h0c-.12,0-.24,0-.24.34v1.21a2.35,2.35,0,0,0,0,.27h-.1l-1.37-1.53v1.1c0,.23.05.31.25.31h.05v.08h-.71v-.08h0c.18,0,.24-.13.24-.34V12.61a.24.24,0,0,0-.24-.24h0v-.08H24l1.19,1.33Z"/><path class="cls-2" d="M25.31,14.2H25.2l-1.35-1.51v1.07c0,.23,0,.3.24.3h.06v.09h-.73v-.09h0c.17,0,.22-.12.23-.33V12.61a.23.23,0,0,0-.23-.23h0v-.09H24l1.17,1.32v-1c0-.21-.14-.24-.22-.24h-.07v-.09h.73v.09h-.05c-.11,0-.23,0-.23.33v1.21a1.18,1.18,0,0,0,0,.27h0Zm-.1,0h.09a2.17,2.17,0,0,1,0-.26V12.71c0-.32.13-.35.25-.35h0V12.3h-.67v.06h0a.23.23,0,0,1,.25.26v1h0L24,12.3h-.53v.06h0a.25.25,0,0,1,.25.25v1.12c0,.22-.06.35-.25.35h0v.06h.68v-.06h0c-.21,0-.26-.09-.26-.32V12.63l1.38,1.55Zm-.05-.56Zm0,0Z"/><path class="cls-2" d="M26,13.77a1.89,1.89,0,0,0-.06.21c0,.08.12.09.2.09h0v.08h-.61v-.08h0a.24.24,0,0,0,.23-.17l.43-1.23a3.18,3.18,0,0,0,.1-.33l.24-.11h0s0,0,0,.07l.49,1.39c0,.09.07.19.1.27a.17.17,0,0,0,.18.11h0v.08h-.76v-.08h0c.06,0,.16,0,.16-.08a.88.88,0,0,0-.05-.19l-.11-.31h-.6l-.09.28Zm.39-1.18h0l-.25.75h.5Z"/><path class="cls-2" d="M27.42,14.16h-.78v-.09h.05c.06,0,.15,0,.15-.07a.88.88,0,0,0-.05-.19l-.11-.3H26.1l-.09.27A1.49,1.49,0,0,0,26,14c0,.06.1.08.18.08h.05v.09h-.64v-.09h0a.23.23,0,0,0,.22-.17l.43-1.22a3.37,3.37,0,0,0,.1-.34,1.38,1.38,0,0,0,.24-.11h0s0,0,0,0a.14.14,0,0,1,0,.06l.49,1.4c0,.09.07.19.1.27a.16.16,0,0,0,.17.1h0v.09Zm-.75,0h.74v-.06h0a.18.18,0,0,1-.19-.11l-.1-.27-.49-1.4s0,0,0-.06h0a1,1,0,0,1-.23.1,3.37,3.37,0,0,1-.1.34l-.43,1.22a.24.24,0,0,1-.24.18h0v.06h.58v-.06h0c-.08,0-.2,0-.21-.1a1.43,1.43,0,0,1,.06-.21h0l.09-.29h.62l.11.32a.67.67,0,0,1,.05.19c0,.08-.11.09-.17.09h0v.06Zm-.55-.79h0l.26-.77h0l.25.77Zm0,0h.46l-.23-.71Zm.22-.74Z"/><path class="cls-2" d="M27.54,12.42c-.2,0-.21.05-.25.25h-.08c0-.08,0-.15,0-.23a1.77,1.77,0,0,0,0-.23h.07c0,.08.08.08.15.08h1.38c.07,0,.14,0,.14-.08h.07l0,.21a1.7,1.7,0,0,0,0,.22l-.08,0c0-.1,0-.26-.19-.26h-.44v1.42c0,.21.09.23.22.23h.05v.08h-.88v-.08h.05c.14,0,.22,0,.22-.22V12.42Z"/><path class="cls-2" d="M28.59,14.16h-.9v-.09h.07c.14,0,.2,0,.21-.21V12.43h0v1.44c0,.21-.09.23-.23.23h0v.06h.86v-.06h0c-.13,0-.23,0-.23-.24V12.41h.45c.17,0,.2.15.2.25l.06,0a1.48,1.48,0,0,1,0-.21,1.36,1.36,0,0,1,0-.2h0c0,.08-.08.08-.15.08H27.47c-.06,0-.13,0-.15-.08h-.05a1.55,1.55,0,0,1,0,.22l0,.21h.05c0-.18.06-.24.26-.24h0c-.2,0-.19,0-.24.24h-.1v0a1.66,1.66,0,0,0,0-.22,1.79,1.79,0,0,0,0-.23h.09c0,.07.06.07.13.07h1.39c.07,0,.13,0,.13-.07v0h.09l0,.21a1.7,1.7,0,0,0,0,.22h0l-.1,0v0c0-.1,0-.25-.18-.25h-.43v1.41c0,.2.08.22.21.22h.06v.09Z"/><path class="cls-2" d="M29.17,14.07h0c.1,0,.2,0,.2-.15v-1.4c0-.14-.1-.15-.2-.15h0v-.08H30v.08h0c-.09,0-.2,0-.2.15v1.4c0,.14.11.15.2.15h0v.08h-.81v-.08Z"/><path class="cls-2" d="M30,14.16h-.83v-.08h.05c.1,0,.19,0,.19-.14v-1.4c0-.13-.09-.14-.19-.14h-.05v-.09H30v.09h0c-.1,0-.18,0-.18.14v1.4c0,.13.08.14.18.14h0v.09Zm0,0h0v-.06h0c-.09,0-.21,0-.21-.16v-1.4c0-.15.12-.16.21-.16h0V12.3h-.79v.06h0c.1,0,.21,0,.21.16v1.4c0,.14-.11.16-.21.16h0v.06H30Z"/><path class="cls-2" d="M31,12.25a.93.93,0,0,1,1,.92,1,1,0,0,1-1,1,.94.94,0,0,1-1-1,1,1,0,0,1,1-1Zm0,1.82h0c.52,0,.61-.45.61-.84s-.21-.86-.65-.86-.61.41-.61.77.22.93.65.93Z"/><path class="cls-2" d="M30.05,13.23a1,1,0,0,1,1-1h0a1,1,0,0,0-1,1,.93.93,0,0,0,1,.95,1,1,0,0,0,1-1,.93.93,0,0,0-1-.91h0a.94.94,0,0,1,1,.93,1,1,0,0,1-1,1,1,1,0,0,1-1-1Zm.37-.09h0c0-.36.14-.78.62-.78s.66.48.66.87-.09.85-.62.85h0c.51,0,.6-.44.6-.83s-.21-.85-.64-.85-.6.4-.6.76.22.92.64.92h0c-.44,0-.66-.46-.66-.94Z"/><path class="cls-2" d="M33.86,13.62h0v-1c0-.22-.15-.25-.23-.25h-.06v-.08h.7v.08h0c-.11,0-.23,0-.23.34v1.21a2.35,2.35,0,0,0,0,.27h-.1l-1.37-1.53v1.1c0,.23,0,.31.25.31h0v.08h-.7v-.08h0c.18,0,.23-.13.23-.34V12.61a.24.24,0,0,0-.24-.24h0v-.08h.54l1.19,1.33Z"/><path class="cls-2" d="M34,14.2H33.9l-1.35-1.51v1.07c0,.23,0,.3.24.3h.06v.09h-.73v-.09h.05c.17,0,.22-.12.22-.33V12.61a.23.23,0,0,0-.23-.23h0v-.09h.56l1.17,1.32v-1c0-.21-.14-.24-.22-.24h-.07v-.09h.72v.09h-.05c-.11,0-.22,0-.22.33v1.21a2.35,2.35,0,0,0,0,.27h0Zm-.1,0H34a2.11,2.11,0,0,1,0-.26V12.71c0-.32.14-.35.25-.35h0V12.3h-.68v.06h.05a.23.23,0,0,1,.24.26v1h0L32.67,12.3h-.53v.06h0a.25.25,0,0,1,.26.25v1.12c0,.21-.06.35-.25.35h0v.06h.68v-.06h0c-.21,0-.26-.09-.26-.32V12.63l1.38,1.55Zm0-.56Zm0,0Z"/><path class="cls-2" d="M34.7,13.77a.87.87,0,0,0-.06.21c0,.08.11.09.2.09h0v.08h-.61v-.08h0a.24.24,0,0,0,.23-.17l.43-1.23a1.78,1.78,0,0,0,.09-.33l.25-.11h0a.19.19,0,0,0,0,.07l.49,1.39a2.15,2.15,0,0,0,.1.27.17.17,0,0,0,.18.11h0v.08h-.77v-.08h0c.06,0,.17,0,.17-.08a1.18,1.18,0,0,0-.06-.19l-.1-.31h-.6l-.09.28Zm.39-1.18h0l-.25.75h.5Z"/><path class="cls-2" d="M36.12,14.16h-.78v-.09h0c.07,0,.16,0,.16-.07a1.18,1.18,0,0,0-.06-.19l-.1-.3h-.59l-.08.27a1.89,1.89,0,0,0-.06.21c0,.06.1.08.19.08h0v.09h-.63v-.09h0a.23.23,0,0,0,.22-.17l.42-1.22a1.93,1.93,0,0,0,.11-.34l.24-.11h0s0,0,0,0,0,0,0,.06l.49,1.4.1.27a.15.15,0,0,0,.16.1h0v.09Zm-.75,0h.74v-.06h0c-.1,0-.16,0-.19-.11a2.15,2.15,0,0,1-.1-.27l-.49-1.4a.14.14,0,0,1,0-.06h0a1.22,1.22,0,0,1-.23.1,3.37,3.37,0,0,1-.1.34l-.43,1.22a.24.24,0,0,1-.24.18h0v.06h.59v-.06h0c-.08,0-.21,0-.21-.1a.76.76,0,0,1,.06-.21h0l.09-.29h.62l.11.32a.67.67,0,0,1,.05.19c0,.08-.12.09-.18.09h0v.06Zm-.55-.79h0l.26-.77h0l.25.77Zm0,0h.47l-.23-.71-.24.71Zm.23-.74Z"/><path class="cls-2" d="M36.79,13.89c0,.11.08.14.16.15a1.38,1.38,0,0,0,.35,0,.35.35,0,0,0,.26-.14.52.52,0,0,0,.08-.19h.08c0,.15-.07.3-.1.45H36.21v-.08h0c.1,0,.2,0,.2-.18V12.52c0-.14-.1-.15-.2-.15h0v-.08H37v.08H37c-.1,0-.18,0-.18.14v1.38Z"/><path class="cls-2" d="M37.62,14.16H36.2v-.09h0c.1,0,.19,0,.19-.17V12.52c0-.13-.09-.14-.19-.14h0v-.09h.85v.09H37c-.1,0-.16,0-.17.13v1.38c0,.1.07.12.15.14h.35a.35.35,0,0,0,.25-.14.46.46,0,0,0,.08-.19h.1c0,.15-.07.3-.1.45h0Zm0,0h0c0-.15.07-.29.1-.43h-.06a.77.77,0,0,1-.08.19.41.41,0,0,1-.27.14l-.2,0H37c-.09,0-.17-.05-.17-.16V12.51c0-.14.09-.15.19-.15H37V12.3h-.8v.06h0c.1,0,.21,0,.21.16v1.37c0,.17-.11.19-.21.19h0v.06h1.38Z"/><path class="cls-2" d="M37.69,12.21a.29.29,0,1,1-.28.29A.28.28,0,0,1,37.69,12.21Zm0,.51h0a.22.22,0,0,0,.22-.22.23.23,0,1,0-.22.22Zm-.14-.08h0s0,0,0,0v-.2s0,0,0,0h.14c.05,0,.1,0,.1.07a.08.08,0,0,1-.07.08l.05.07a.17.17,0,0,0,.06.06h-.06s-.05-.05-.1-.13h0v.1s0,0,0,0h-.13Zm.09-.14h0s0,0,0-.08a.06.06,0,0,0-.06-.06h0Z"/></g><path class="cls-3" d="M8.92,15.66A4.85,4.85,0,0,0,13.79,11a4.76,4.76,0,0,0-4.87-4.7H6.73A4.6,4.6,0,0,0,2,11a4.67,4.67,0,0,0,4.7,4.62Z"/><path class="cls-1" d="M6.74,6.73A4.26,4.26,0,1,0,11,11,4.26,4.26,0,0,0,6.74,6.73ZM4,11H4A2.7,2.7,0,0,1,5.77,8.47v5A2.7,2.7,0,0,1,4,11ZM7.7,13.51h0v-5a2.69,2.69,0,0,1,0,5Z"/><path class="cls-3" d="M8.92,15.66A4.85,4.85,0,0,0,13.79,11a4.76,4.76,0,0,0-4.87-4.7H6.73A4.6,4.6,0,0,0,2,11a4.67,4.67,0,0,0,4.7,4.62Z"/><path class="cls-1" d="M6.74,6.73A4.26,4.26,0,1,0,11,11,4.26,4.26,0,0,0,6.74,6.73ZM4,11H4A2.7,2.7,0,0,1,5.77,8.47v5A2.7,2.7,0,0,1,4,11ZM7.7,13.51h0v-5a2.69,2.69,0,0,1,0,5Z"/></g></g></svg>