<svg xmlns="http://www.w3.org/2000/svg" viewBox="0 0 40 22"><defs><style>.cls-1{fill:#fff;}.cls-1,.cls-2,.cls-3,.cls-4{fill-rule:evenodd;}.cls-2{fill:#089cd7;}.cls-3{fill:#faea27;}.cls-4{fill:#e43513;}</style></defs><g id="Camada_2" data-name="Camada 2"><g id="Camada_1-2" data-name="Camada 1"><rect width="40" height="22" rx="2"/><path class="cls-1" d="M22.2,7.8a4.13,4.13,0,0,1,4,3.15l-1.66.73h0l-1.7.75L18.77,14.2A4.12,4.12,0,0,1,22.2,7.8ZM24,10.36l-4.11,1.77a1.48,1.48,0,0,1,0-.21A2.35,2.35,0,0,1,24,10.36Z"/><path class="cls-1" d="M25.08,14.86a4.09,4.09,0,0,1-5.14.5l1-1.47a2.4,2.4,0,0,0,2.94-.29l1.23,1.26Z"/><path class="cls-1" d="M26.76,13.84V6.06h1.47v7.57a.16.16,0,0,0,.11.18l1.28.5L29,15.81l-1.5-.64c-.57-.24-.77-.59-.77-1.33Z"/><path class="cls-1" d="M32.31,13.71a2.34,2.34,0,0,1-.17-3.56l-1-1.54a4.15,4.15,0,0,0,.23,6.67Z"/><path class="cls-1" d="M33,9.64a2.56,2.56,0,0,1,.79-.13A2.34,2.34,0,0,1,36,11l1.83-.15a4.15,4.15,0,0,0-4-3.17A4,4,0,0,0,32.2,8Z"/><path class="cls-1" d="M36.1,12a2.35,2.35,0,0,1-2.35,2.24,2.69,2.69,0,0,1-.57-.07l-.71,1.66A4.15,4.15,0,0,0,37.89,12Z"/><path class="cls-2" d="M6.41,14A3.76,3.76,0,0,1,5,11,3.71,3.71,0,0,1,6.13,8.29L4.61,5.83A6.59,6.59,0,0,0,5,16.44Z"/><path class="cls-3" d="M7.44,7.48a3.57,3.57,0,0,1,1.27-.22,3.73,3.73,0,0,1,3.5,2.42l2.91-.24A6.61,6.61,0,0,0,6.23,4.88Z"/><path class="cls-4" d="M12.44,11.18a3.74,3.74,0,0,1-3.73,3.56,4,4,0,0,1-.92-.11L6.65,17.27a6.68,6.68,0,0,0,2.06.33,6.6,6.6,0,0,0,6.59-6.33Z"/></g></g></svg>