<svg xmlns="http://www.w3.org/2000/svg" viewBox="0 0 40 22"><defs><style>.cls-1{fill:#bd1d1d;}.cls-2{fill:#fff;}</style></defs><g id="Camada_2" data-name="Camada 2"><g id="Camada_1-2" data-name="Camada 1"><rect class="cls-1" width="40" height="22" rx="2"/><path class="cls-2" d="M2.52,13.19c.24-.86.46-1.82.68-2.89s.4-2.2.57-3.39l.31,0h.36l.3,0c-.13.44-.27,1-.42,1.7l0,.1-.18.89h.55l1,0,1.7,0h.16l.21-1c.07-.39.13-.71.16-1S8,7.15,8,6.91l.29,0h.37l.32,0c-.32,1.21-.58,2.36-.8,3.44a28.56,28.56,0,0,0-.45,2.84l-.32,0H7.09l-.32,0c.11-.42.21-.79.29-1.12s.14-.58.18-.78l.24-1.21H4l-.21,1c-.06.3-.11.63-.17,1s-.11.72-.16,1.12l-.29,0H2.82l-.3,0Zm7.32-6A.42.42,0,0,1,10,6.85a.5.5,0,0,1,.64,0,.45.45,0,0,1,.12.34.48.48,0,0,1-.13.32.46.46,0,0,1-.32.13A.4.4,0,0,1,10,7.5a.42.42,0,0,1-.13-.32Zm-1,6c.25-.95.44-1.81.58-2.57A13.39,13.39,0,0,0,9.6,8.79l.25,0h.45l.25,0c-.24.87-.43,1.68-.56,2.43a15.16,15.16,0,0,0-.24,2l-.31,0H9.1l-.3,0Zm4-.41a1.33,1.33,0,0,0,1.13-.69,2.92,2.92,0,0,0,.46-1.69,1.51,1.51,0,0,0-.26-.93.88.88,0,0,0-.72-.33,1.37,1.37,0,0,0-1.17.69,2.94,2.94,0,0,0-.47,1.7,1.45,1.45,0,0,0,.26.93.94.94,0,0,0,.77.32ZM10,15.7c.27-1,.53-2,.77-3.2s.45-2.42.64-3.71l.21,0H12l.23,0-.16.64a2.48,2.48,0,0,1,.71-.57,1.86,1.86,0,0,1,.82-.18,1.48,1.48,0,0,1,1.17.49,2,2,0,0,1,.43,1.34,3,3,0,0,1-.68,2,2.19,2.19,0,0,1-1.72.8A1.25,1.25,0,0,1,12,13a1.42,1.42,0,0,1-.49-.69l-.19,1c0,.05,0,.14-.06.26-.16.84-.29,1.53-.37,2.07l-.25,0H10.3l-.26,0Zm6.3-5.14h2.17c0-.1,0-.18,0-.25v-.18a1.32,1.32,0,0,0-.22-.81A.73.73,0,0,0,17.7,9a1.07,1.07,0,0,0-.84.41,2.54,2.54,0,0,0-.52,1.12Zm-.08.39,0,.29c0,.1,0,.2,0,.29a1.42,1.42,0,0,0,.32,1,1.14,1.14,0,0,0,.89.35,1.54,1.54,0,0,0,.7-.17,2.67,2.67,0,0,0,.71-.54l.11.1c0,.08-.08.18-.12.28a2.81,2.81,0,0,0-.1.31,3.51,3.51,0,0,1-.73.36,2.17,2.17,0,0,1-.72.11,1.85,1.85,0,0,1-1.4-.53,1.93,1.93,0,0,1-.52-1.43A2.83,2.83,0,0,1,16,9.44a2.15,2.15,0,0,1,1.7-.77,1.52,1.52,0,0,1,1.18.47,1.89,1.89,0,0,1,.43,1.32,1.53,1.53,0,0,1,0,.18c0,.08,0,.19,0,.31H19.1l-1.42,0H16.26Zm3.07,2.24c.22-.84.39-1.65.53-2.41s.22-1.42.26-2l.22,0h.37l.22,0a4.26,4.26,0,0,0-.11.42c0,.14-.06.3-.08.46A2.69,2.69,0,0,1,21.38,9,1.11,1.11,0,0,1,22,8.7h.12l.12,0-.09.39c0,.13,0,.26,0,.38l-.25-.05h-.18c-.41,0-.72.26-.95.78a11.94,11.94,0,0,0-.56,3l-.26,0h-.33l-.29,0Zm6-.24a2.73,2.73,0,0,1-1.36.36,1.85,1.85,0,0,1-1.39-.53A2,2,0,0,1,22,11.36a2.71,2.71,0,0,1,.7-1.9,2.28,2.28,0,0,1,1.77-.77,3.52,3.52,0,0,1,.83.09,2.54,2.54,0,0,1,.68.27c-.06.13-.11.25-.16.38a2.79,2.79,0,0,0-.1.39h-.14a1.23,1.23,0,0,0-.43-.58A1,1,0,0,0,24.54,9a1.41,1.41,0,0,0-1.2.7,2.8,2.8,0,0,0-.49,1.68,1.61,1.61,0,0,0,.31,1.07,1.11,1.11,0,0,0,.9.38,1.87,1.87,0,0,0,.75-.16,1.49,1.49,0,0,0,.56-.46l.13.1-.12.29a2.81,2.81,0,0,0-.1.31Zm2.78-.36a2.17,2.17,0,0,1-.63.53,1.5,1.5,0,0,1-.7.16,1.11,1.11,0,0,1-.82-.29,1,1,0,0,1-.3-.78,1.23,1.23,0,0,1,.4-1,3.44,3.44,0,0,1,1.44-.55l.76-.14a.37.37,0,0,0,.26-.23,1.28,1.28,0,0,0,.08-.54.73.73,0,0,0-.2-.55A.76.76,0,0,0,27.79,9a1.43,1.43,0,0,0-.72.18,1.32,1.32,0,0,0-.49.53l-.15,0c0-.09,0-.18.05-.26a2.29,2.29,0,0,0,0-.25.2.2,0,0,0,0-.07V9.05a3.06,3.06,0,0,1,.67-.3,2.78,2.78,0,0,1,.72-.09,1.55,1.55,0,0,1,1,.29,1,1,0,0,1,.36.83,3,3,0,0,1,0,.39c0,.15-.05.32-.08.5l-.31,1.55,0,.2c0,.06,0,.12,0,.17a.3.3,0,0,0,.07.2.26.26,0,0,0,.2.07h.11l.18,0,.12.24a2.34,2.34,0,0,1-.41.18,1.65,1.65,0,0,1-.38,0,.61.61,0,0,1-.45-.17.78.78,0,0,1-.18-.51Zm.29-1.73-.74.17a2.24,2.24,0,0,0-.94.41.87.87,0,0,0-.3.68.67.67,0,0,0,.18.49.61.61,0,0,0,.47.19,1.12,1.12,0,0,0,.73-.28,1.08,1.08,0,0,0,.41-.64l.19-1Zm1.25,2.33c.22-.84.39-1.65.53-2.41a17.67,17.67,0,0,0,.25-2l.23,0H31l.22,0a2.58,2.58,0,0,0-.11.42c0,.14-.06.3-.08.46A2.69,2.69,0,0,1,31.65,9a1.11,1.11,0,0,1,.66-.25h.12l.12,0a2.74,2.74,0,0,0-.09.39c0,.13,0,.26,0,.38l-.25-.05H32c-.41,0-.73.26-.95.78a11.94,11.94,0,0,0-.56,3l-.27,0h-.32l-.29,0Zm5.83-.64a2.5,2.5,0,0,1-.74.57,1.9,1.9,0,0,1-.83.18,1.39,1.39,0,0,1-1.13-.51,2,2,0,0,1-.42-1.34,3,3,0,0,1,.67-2,2.11,2.11,0,0,1,1.68-.79,1.32,1.32,0,0,1,.81.25,1.41,1.41,0,0,1,.51.7l.2-1c.09-.45.17-.87.24-1.24s.13-.74.18-1.07l.25,0h.37l.26,0c-.31,1.11-.58,2.25-.81,3.41s-.44,2.32-.6,3.48l-.21,0H35.5l-.23,0,.16-.64ZM34.74,9.2a1.34,1.34,0,0,0-1.14.69,3.07,3.07,0,0,0-.46,1.71,1.5,1.5,0,0,0,.25.92.88.88,0,0,0,.73.31,1.39,1.39,0,0,0,1.18-.68,3,3,0,0,0,.46-1.73,1.41,1.41,0,0,0-.26-.91,1,1,0,0,0-.76-.31Z"/></g></g></svg>