<svg xmlns="http://www.w3.org/2000/svg" viewBox="0 0 7.93 7.93"><defs><style>.cls-1{fill:#121235;}</style></defs><g id="Camada_2" data-name="Camada 2"><g id="Modo_de_isolamento" data-name="Modo de isolamento"><path class="cls-1" d="M6.4,0H1.53A1.54,1.54,0,0,0,0,1.53V6.4A1.53,1.53,0,0,0,1.53,7.93H6.4A1.52,1.52,0,0,0,7.93,6.4V1.53A1.53,1.53,0,0,0,6.4,0Zm.44.91H7V2.26H5.67V.92Zm-4,2.24A1.4,1.4,0,0,1,5.36,4,1.4,1.4,0,1,1,2.57,4,1.42,1.42,0,0,1,2.83,3.15ZM7.16,6.4a.76.76,0,0,1-.76.76H1.53A.76.76,0,0,1,.77,6.4V3.15H2A2,2,0,0,0,1.8,4,2.17,2.17,0,0,0,6.14,4,2.21,2.21,0,0,0,6,3.15H7.16Z"/></g></g></svg>