<svg xmlns="http://www.w3.org/2000/svg" viewBox="0 0 340.66 132.16"><defs><style>.cls-1{fill:#121235;}</style></defs><g id="Camada_2" data-name="Camada 2"><g id="Isolation_Mode" data-name="Isolation Mode"><path class="cls-1" d="M46.51,132l-13.07.16L63.86,98.72l13.73,0,6,33.34-12.88,0-.9-5.42-14.63,0,7.77-8.42h5.47c-.14-.83-.28-1.59-.42-2.3l-.39-2.1c-.13-.69-.25-1.4-.37-2.14s-.28-1.54-.44-2.39L46.51,132Z"/><polygon class="cls-1" points="105.45 109.52 97.34 131.86 86.35 131.89 98.41 98.64 115.78 98.61 125.77 120.8 133.85 98.56 144.79 98.54 132.73 131.78 115.46 131.82 105.45 109.52 105.45 109.52"/><path class="cls-1" d="M146.78,131.75l-13.08.17,30.42-33.43,13.73,0,6,33.35-12.89,0-.9-5.41-14.63,0,7.77-8.41h5.47c-.14-.82-.28-1.59-.41-2.29s-.27-1.4-.4-2.11-.25-1.4-.37-2.14-.27-1.53-.44-2.38l-20.23,22.65Z"/><polygon class="cls-1" points="200.99 131.77 189.49 131.8 198.34 107.38 184.38 107.41 187.64 98.44 226.66 98.36 223.4 107.33 209.86 107.36 200.99 131.77 200.99 131.77"/><polygon class="cls-1" points="242.65 98.33 230.53 131.71 219.02 131.73 231.14 98.35 242.65 98.33 242.65 98.33"/><path class="cls-1" d="M243.66,107.91a14.17,14.17,0,0,1,5.29-7.19,16.32,16.32,0,0,1,9.27-2.42l28.13-.07-3.41,9.4-27,.06a4,4,0,0,0-1.64.28,1.4,1.4,0,0,0-.74.66l-1,2.6-2.73,7.51c-.11.38-.23.8-.38,1.26s-.3.87-.43,1.25c-.28.76.26,1.13,1.62,1.13l27-.06-3.39,9.3-28.12.06c-3.8,0-6.31-.78-7.52-2.39s-1.24-4-.08-7.16l5.16-14.22Z"/><path class="cls-1" d="M324.31,114.43a13.83,13.83,0,0,1-1,6.56c-1.34,3.69-3.13,6.36-5.37,8a14.57,14.57,0,0,1-8.88,2.52l-22.93,0-2.55-.75-1.64-1.08-.61-1.32.18-2.17,1.14-3.17,25.3-.06a7.1,7.1,0,0,0,2.49-.44,2.68,2.68,0,0,0,1.66-1.63c.31-.86.09-1.39-.65-1.61a5.56,5.56,0,0,0-1.5-.28c-.56,0-1.24,0-2.06,0a5.26,5.26,0,0,0-1,0c-.45,0-1.08,0-1.85,0h-1.42c-1.86-.06-3.36-.07-4.53-.06s-1.95,0-2.41,0l-1.38-.07c-.45,0-.88,0-1.31-.06-.24,0-.48-.06-.73-.08a3.44,3.44,0,0,1-.63-.07H292c-3.17-.19-5.11-1.28-5.79-3.29a5.73,5.73,0,0,1-.19-2.72,18.43,18.43,0,0,1,1-3.75,19.1,19.1,0,0,1,5-8,11.64,11.64,0,0,1,7.89-2.68l24,.09,2,.74,1.51.9.77,1.42.3,1.88-1.09,3.4-25.24.06a6.61,6.61,0,0,0-2.35.42,2.58,2.58,0,0,0-1.55,1.61c-.26.72-.15,1.22.35,1.49a4.82,4.82,0,0,0,2.26.39h1.75c.42.06,1.33.1,2.73.13h1.37c1.62.06,3,.08,4.14,0s2,0,2.64,0a9,9,0,0,0,1.16,0,6.79,6.79,0,0,1,1,0,3,3,0,0,0,.51,0h.42a12,12,0,0,0,1.2,0,4.91,4.91,0,0,1,1,0,8.33,8.33,0,0,1,3.77,1.06,3.73,3.73,0,0,1,1.77,2.51l0,.05Z"/><path class="cls-1" d="M164.59,0,145,53.51a1.78,1.78,0,0,0,.61,2.24c.75.58,2.11.87,4.1.87l34.33,0a11.76,11.76,0,0,0,5.08-.85,4.22,4.22,0,0,0,2.26-2.24L211,.08l27.55,0L217.7,56.92a42.72,42.72,0,0,1-4.76,9.52A31.47,31.47,0,0,1,205.35,74c-1.54,1.07-2.93,2-4.17,2.74a28.9,28.9,0,0,1-3.37,1.85,26.49,26.49,0,0,1-7.57,2.16,31.47,31.47,0,0,1-5,.69c-2.09.15-4.21.27-6.39.34s-5.28,0-9,0-7.72.06-12.08,0q-7,0-12.2-.07t-8.65-.06a63.58,63.58,0,0,1-10.87-1h.11a18.68,18.68,0,0,1-3.35-.86,11.92,11.92,0,0,1-2.58-1.27,9.83,9.83,0,0,1-2.18-1.89,33.72,33.72,0,0,1-2.15-2.75,12,12,0,0,1-2.12-7.53,34.76,34.76,0,0,1,2.31-9.58L136.92,0l27.67,0Z"/><polygon class="cls-1" points="277.96 81.31 249.95 81.28 271.7 21.95 237.72 21.91 245.71 0.11 340.66 0.21 332.66 22.02 299.72 21.98 277.96 81.31 277.96 81.31"/><path class="cls-1" d="M41.81,81.3l-28,0L43.54.13l85,.09-8.37,22.84L63.18,23,59.39,33.33l-8,21.81L41.81,81.3Zm21.71-48,45.81,0-8,21.91-45.81,0,8-21.91Z"/><path class="cls-1" d="M11.73,132.16,0,132.14l12.46-34L48,98.2l-3.51,9.57-23.85,0-1.58,4.33-3.35,9.13-4,11Zm9.61-20.09,19.18,0-3.37,9.18-19.18,0,3.37-9.18Z"/></g></g></svg>