<svg xmlns="http://www.w3.org/2000/svg" viewBox="0 0 40 22"><defs><style>.cls-1{fill:#f4f4f4;}.cls-2{fill:#fab31e;}.cls-2,.cls-3,.cls-4,.cls-5{fill-rule:evenodd;}.cls-3{fill:#e40520;}.cls-4{fill:#fff;}</style></defs><g id="Camada_2" data-name="Camada 2"><g id="Camada_1-2" data-name="Camada 1"><rect class="cls-1" width="40" height="22" rx="2"/><path class="cls-2" d="M20,17.4a8.43,8.43,0,0,0,5.75,2.24,8.64,8.64,0,0,0,0-17.28A8.43,8.43,0,0,0,20,4.6a8.63,8.63,0,0,0,0,12.8Z"/><path class="cls-2" d="M33.21,15.82a.28.28,0,0,1,.55,0,.28.28,0,1,1-.55,0Zm.27.22a.23.23,0,0,0,.22-.22.21.21,0,0,0-.22-.21.22.22,0,0,0-.21.21.24.24,0,0,0,.21.22Zm0-.09h-.06V15.7h.17s0,0,0,.06,0,.06,0,.06l.06.12h-.07l0-.11h0v0h.06s0,0,0,0l0,0h-.06V16Z"/><path class="cls-3" d="M22.78,10.09c0-.31-.09-.61-.15-.92H17.38a9.36,9.36,0,0,1,.24-.91h4.76c-.1-.31-.22-.62-.35-.92H18c.15-.31.31-.62.49-.92h3a7.08,7.08,0,0,0-.65-.9H19.13A8.52,8.52,0,0,1,20,4.6a8.62,8.62,0,1,0-5.77,15A8.5,8.5,0,0,0,20,17.4h0a9.14,9.14,0,0,0,.86-.9H19.13c-.24-.3-.44-.6-.65-.92h3a8.26,8.26,0,0,0,.51-.92H18c-.13-.3-.27-.6-.37-.91h4.76a6.92,6.92,0,0,0,.25-.92,8.83,8.83,0,0,0,.15-.92,8.72,8.72,0,0,0,0-.9,9.12,9.12,0,0,0,0-.92Z"/><path class="cls-4" d="M33.21,13a.28.28,0,1,1,.55,0,.28.28,0,1,1-.55,0Zm.27.21a.21.21,0,1,0,0-.42.21.21,0,0,0,0,.42Zm0-.09h-.06v-.24h.17a.11.11,0,0,1,0,.08.09.09,0,0,1,0,.06l.06.1h-.07l0-.09h0v0h0s0,0,0,0,0,0,0,0h0s0,0,0,0h0v.19Z"/><path class="cls-5" d="M17.08,13.5a2.94,2.94,0,0,1-.69.12c-.45,0-.72-.28-.72-.79,0-.1,0-.21,0-.32l.06-.35.05-.28.4-2.43h.89L17,10h.56l-.13.89h-.57l-.24,1.46a1,1,0,0,0,0,.15c0,.19.09.26.31.26a1.27,1.27,0,0,0,.28,0l-.12.79Z"/><path class="cls-5" d="M20,13.47a3.4,3.4,0,0,1-.95.13A1.42,1.42,0,0,1,17.43,12c0-1.24.68-2.13,1.63-2.13a1.19,1.19,0,0,1,1.24,1.3,4.37,4.37,0,0,1-.1.87H18.35a.32.32,0,0,0,0,.12c0,.42.28.62.82.62a2.21,2.21,0,0,0,1-.22l-.15.89Zm-.55-2.12v-.18a.41.41,0,0,0-.44-.46c-.3,0-.51.22-.59.64Z"/><polygon class="cls-5" points="9.96 13.54 9.04 13.54 9.58 10.18 8.37 13.54 7.74 13.54 7.66 10.19 7.1 13.54 6.19 13.54 6.92 9.17 8.27 9.17 8.3 11.87 9.21 9.17 10.69 9.17 9.96 13.54 9.96 13.54"/><path class="cls-5" d="M12.2,12l-.18,0c-.53,0-.8.21-.8.54a.34.34,0,0,0,.34.37c.45,0,.63-.37.64-.89Zm.74,1.58h-.8l0-.37a1.07,1.07,0,0,1-1,.43.9.9,0,0,1-.83-1,1.77,1.77,0,0,1,.07-.46c.15-.54.7-.89,1.54-.9h.42a.72.72,0,0,0,0-.23c0-.24-.19-.31-.62-.31a2.55,2.55,0,0,0-.77.11l-.14,0-.06,0,.14-.8A3.32,3.32,0,0,1,12,9.89c.8,0,1.23.38,1.23,1.06a3.25,3.25,0,0,1,0,.7L13,12.92l0,.22,0,.18v.12l0,.1Z"/><path class="cls-5" d="M24.44,10a1.86,1.86,0,0,1,.84.24l.16-.95-.24-.09-.37-.1a1.81,1.81,0,0,0-.43,0,1.87,1.87,0,0,0-1,.18,3,3,0,0,0-.55.48l-.12,0-.95.66.05-.37h-1l-.58,3.56h.93l.35-1.91s.13-.27.19-.36a.55.55,0,0,1,.52-.22h.07a4.79,4.79,0,0,0,0,.68,1.67,1.67,0,0,0,1.66,1.89,3.05,3.05,0,0,0,.82-.12l.16-1a1.72,1.72,0,0,1-.79.24c-.55,0-.87-.42-.87-1.07,0-1,.49-1.65,1.18-1.65Z"/><path class="cls-5" d="M32.32,9.17l-.2,1.24a1,1,0,0,0-.85-.5,1.39,1.39,0,0,0-1.23.82v0l-.6-.36L29.5,10h-1L28,13.54h.92l.31-1.91a4,4,0,0,0,.29-.36.64.64,0,0,1,.42-.22,3.33,3.33,0,0,0-.16,1.06c0,.89.46,1.48,1.14,1.48a1.08,1.08,0,0,0,.86-.4l0,.35h.87l.71-4.37ZM31.18,12.7c-.31,0-.47-.24-.47-.7,0-.7.29-1.2.72-1.2s.49.25.49.7c0,.71-.29,1.2-.74,1.2Z"/><path class="cls-5" d="M26.89,12l-.18,0c-.53,0-.8.21-.8.54a.34.34,0,0,0,.34.37c.45,0,.63-.37.64-.89Zm.74,1.58h-.81l0-.37a1.07,1.07,0,0,1-1,.43.9.9,0,0,1-.86-1c0-.84.64-1.36,1.65-1.36h.4a.79.79,0,0,0,0-.23c0-.24-.19-.31-.64-.31a2.7,2.7,0,0,0-.77.11l-.12,0-.06,0,.14-.8a3.32,3.32,0,0,1,1.08-.2c.8,0,1.22.38,1.22,1.06a2.41,2.41,0,0,1-.05.7l-.19,1.27,0,.22,0,.18,0,.12v.1Z"/><path class="cls-5" d="M14.89,10.74a5.07,5.07,0,0,1,.7.06l.13-.83c-.27,0-.62-.08-.83-.08-1,0-1.38.57-1.38,1.22a1,1,0,0,0,.7,1c.37.18.43.21.43.37s-.2.36-.55.36a2.58,2.58,0,0,1-.85-.15l-.1.82h0l.18,0,.24,0,.53,0c1,0,1.47-.4,1.47-1.18a1,1,0,0,0-.7-1c-.4-.18-.44-.2-.44-.37s.18-.31.46-.31Z"/><path class="cls-4" d="M25.69,9l-.16,1a1.86,1.86,0,0,0-.83-.24c-.7,0-1.19.68-1.19,1.65,0,.67.33,1.07.87,1.07a1.82,1.82,0,0,0,.79-.23l-.16,1a3.06,3.06,0,0,1-.82.13c-1,0-1.63-.73-1.63-1.9,0-1.56.86-2.65,2.09-2.65a1.8,1.8,0,0,1,.43,0l.37.09.24.09Z"/><path class="cls-4" d="M22.69,9.67H22.6c-.31,0-.49.15-.77.58l.09-.55h-.84l-.58,3.56h.93c.34-2.18.43-2.55.88-2.55h.06a3.67,3.67,0,0,1,.35-1l0,0Z"/><path class="cls-4" d="M17.32,13.22a1.9,1.9,0,0,1-.67.12.69.69,0,0,1-.74-.79c0-.09,0-.21,0-.31l.06-.36.05-.28.4-2.43h.92l-.11.53h.48l-.12.88h-.48l-.25,1.48a.81.81,0,0,0,0,.15c0,.18.09.25.31.25a.61.61,0,0,0,.25,0l-.12.79Z"/><path class="cls-4" d="M13.75,10.83a1,1,0,0,0,.69,1c.39.18.45.24.45.39s-.17.33-.54.33a2.78,2.78,0,0,1-.83-.14l-.13.82h0l.17,0a.77.77,0,0,0,.25,0,3.41,3.41,0,0,0,.5,0c1,0,1.44-.37,1.44-1.18a1,1,0,0,0-.65-1c-.4-.18-.44-.22-.44-.38s.16-.29.46-.29a5.73,5.73,0,0,1,.66,0L16,9.7a6.05,6.05,0,0,0-.82-.07c-1,0-1.41.55-1.39,1.2Z"/><path class="cls-4" d="M32.8,13.26h-.88l0-.34a1.1,1.1,0,0,1-.86.39c-.69,0-1.13-.58-1.13-1.47,0-1.19.7-2.2,1.51-2.2a1.08,1.08,0,0,1,.89.49l.21-1.24h.92l-.71,4.37Zm-1.37-.83c.43,0,.73-.5.73-1.2,0-.46-.16-.7-.49-.7s-.73.49-.73,1.19c0,.47.17.71.49.71Z"/><path class="cls-4" d="M20.17,13.19a3.15,3.15,0,0,1-1,.15,1.42,1.42,0,0,1-1.58-1.61c0-1.21.69-2.12,1.62-2.12a1.19,1.19,0,0,1,1.26,1.29,3.53,3.53,0,0,1-.12.89H18.55a.49.49,0,0,0,0,.11c0,.41.28.62.81.62a2.08,2.08,0,0,0,1-.22l-.15.89Zm-.52-2.12v-.18a.41.41,0,0,0-.44-.46c-.3,0-.51.22-.6.64Z"/><polygon class="cls-4" points="10.2 13.26 9.28 13.26 9.81 9.89 8.61 13.26 7.97 13.26 7.9 9.92 7.33 13.26 6.47 13.26 7.2 8.88 8.54 8.88 8.58 11.6 9.47 8.88 10.93 8.88 10.2 13.26 10.2 13.26"/><path class="cls-4" d="M12.5,11.68l-.21,0c-.52,0-.79.19-.79.55a.32.32,0,0,0,.33.36c.39,0,.65-.36.67-.89Zm.68,1.58h-.77v-.37a1.12,1.12,0,0,1-1,.43.86.86,0,0,1-.85-1c0-.88.59-1.38,1.63-1.38l.39,0a.79.79,0,0,0,0-.23c0-.23-.17-.32-.6-.32a3.07,3.07,0,0,0-.77.09l-.13,0-.09,0,.13-.8a3.55,3.55,0,0,1,1.12-.18c.8,0,1.23.35,1.23,1a4.72,4.72,0,0,1-.08.71l-.2,1.26,0,.22,0,.18v.13l0,.09Z"/><path class="cls-4" d="M27.19,11.68l-.21,0c-.53,0-.8.19-.8.55a.33.33,0,0,0,.34.36c.37,0,.65-.36.67-.89Zm.68,1.58H27.1l0-.37a1.15,1.15,0,0,1-1,.43.86.86,0,0,1-.85-1c0-.88.59-1.38,1.63-1.38l.37,0a1.07,1.07,0,0,0,.05-.23c0-.23-.17-.32-.6-.32a3.15,3.15,0,0,0-.78.09l-.12,0-.09,0,.13-.8A3.59,3.59,0,0,1,27,9.63c.8,0,1.21.35,1.21,1a3.39,3.39,0,0,1-.07.71L28,12.64l0,.22,0,.18,0,.13v.09Z"/><path class="cls-4" d="M30.36,9.67h-.08c-.32,0-.49.15-.78.58l.09-.55h-.84l-.57,3.56h.92c.34-2.18.43-2.55.88-2.55H30a4,4,0,0,1,.35-1l0,0Z"/></g></g></svg>