<svg xmlns="http://www.w3.org/2000/svg" viewBox="0 0 40 22"><defs><style>.cls-1{fill:#fff;}.cls-2{fill:#0079c1;}.cls-3{fill:#00447c;}</style></defs><g id="Camada_2" data-name="Camada 2"><g id="Camada_1-2" data-name="Camada 1"><path class="cls-1" d="M38,22H2a2,2,0,0,1-2-2V2A2,2,0,0,1,2,0H38a2,2,0,0,1,2,2V20A2,2,0,0,1,38,22Z"/><path class="cls-2" d="M27.23,4.59a3.4,3.4,0,0,0-1.57-.28,6.32,6.32,0,0,0-1.06.09,3.51,3.51,0,0,0-.45.08.51.51,0,0,0-.39.41l-.11.44c-.06.28.1.27.17.25a4.31,4.31,0,0,1,.52-.16,4.41,4.41,0,0,1,.83-.11,2.32,2.32,0,0,1,.8.11.41.41,0,0,1,.27.4.27.27,0,0,1,0,.13.15.15,0,0,1-.13.08,11.85,11.85,0,0,0-1.29.14,4.14,4.14,0,0,0-1.12.3,1.76,1.76,0,0,0-.75.6,1.61,1.61,0,0,0-.26.92,1.05,1.05,0,0,0,.36.83,1.36,1.36,0,0,0,.93.32,2.57,2.57,0,0,0,.55-.05,3.08,3.08,0,0,0,.42-.15,1.51,1.51,0,0,0,.37-.2l.33-.22h0l0,.14h0a.25.25,0,0,0,.23.32h.83A.45.45,0,0,0,27,8.67l.64-2.77a1.24,1.24,0,0,0,0-.22c0-.09,0-.17,0-.22a.94.94,0,0,0-.5-.87M25.67,7.9l-.34.17a1.16,1.16,0,0,1-.46.1,1.12,1.12,0,0,1-.5-.09.36.36,0,0,1-.17-.33.65.65,0,0,1,.13-.43.78.78,0,0,1,.37-.25,2.77,2.77,0,0,1,.58-.13l.65-.07c.05,0,.08,0,.06.1s-.12.53-.17.74a.49.49,0,0,1-.15.19"/><path class="cls-3" d="M16.19,4.38a.77.77,0,0,0-.56.33L14.25,7.09c-.06.11-.14,0-.15,0l-.39-2.36a.47.47,0,0,0-.48-.35h-.78a.27.27,0,0,0-.27.34s.61,3.4.72,4.2c.06.44,0,.52,0,.52l-.77,1.36c-.12.18,0,.33.13.33h.91a.74.74,0,0,0,.55-.33l3.51-5.92s.33-.51,0-.5h-1"/><path class="cls-3" d="M5.13,5.58A1.86,1.86,0,0,1,4,5.87H3.81a.27.27,0,0,1-.27-.34l.27-1.14a.44.44,0,0,1,.41-.33h.29a1.46,1.46,0,0,1,.77.17.58.58,0,0,1,.25.52,1,1,0,0,1-.4.83M7,3.82a1.3,1.3,0,0,0-.48-.51A2.23,2.23,0,0,0,5.79,3a6.29,6.29,0,0,0-1-.08H2.91a.46.46,0,0,0-.42.34L1.25,8.66A.26.26,0,0,0,1.52,9H2.4a.45.45,0,0,0,.42-.33l.3-1.31A.45.45,0,0,1,3.54,7h.25A4.16,4.16,0,0,0,6.3,6.36a2.07,2.07,0,0,0,.9-1.75A1.59,1.59,0,0,0,7,3.82"/><path class="cls-2" d="M21.09,5.6A1.86,1.86,0,0,1,20,5.89h-.22a.26.26,0,0,1-.26-.33l.26-1.15a.45.45,0,0,1,.42-.33h.29a1.46,1.46,0,0,1,.77.17.58.58,0,0,1,.25.52,1,1,0,0,1-.4.83M23,3.84a1.4,1.4,0,0,0-.48-.52A2.42,2.42,0,0,0,21.74,3a6.16,6.16,0,0,0-1-.08H18.87a.45.45,0,0,0-.42.34L17.21,8.68a.26.26,0,0,0,.27.33h.88a.45.45,0,0,0,.42-.33l.3-1.31A.45.45,0,0,1,19.5,7h.25a4.16,4.16,0,0,0,2.51-.66,2.07,2.07,0,0,0,.9-1.75A1.71,1.71,0,0,0,23,3.84"/><path class="cls-3" d="M11.27,4.59A3.33,3.33,0,0,0,9.7,4.31a7.71,7.71,0,0,0-1.07.08,3.49,3.49,0,0,0-.45.09.5.5,0,0,0-.38.4l-.11.44c-.06.29.1.28.17.25s.23-.08.52-.15a3.72,3.72,0,0,1,.83-.11,2.32,2.32,0,0,1,.8.11.41.41,0,0,1,.26.4.45.45,0,0,1,0,.12.14.14,0,0,1-.13.08c-.5,0-.86.08-1.29.14a3.8,3.8,0,0,0-1.12.31,1.66,1.66,0,0,0-.76.6A1.57,1.57,0,0,0,6.71,8a1.09,1.09,0,0,0,.36.84A1.36,1.36,0,0,0,8,9.13a2.57,2.57,0,0,0,.55-.05A3,3,0,0,0,9,8.94a3.42,3.42,0,0,0,.36-.2l.33-.22h0l0,.15h0A.27.27,0,0,0,9.87,9h.83a.46.46,0,0,0,.38-.33l.64-2.77a1.43,1.43,0,0,0,0-.23c0-.09,0-.16,0-.21a.94.94,0,0,0-.5-.87M9.71,7.89a2.21,2.21,0,0,1-.34.18,1.36,1.36,0,0,1-.46.1,1,1,0,0,1-.5-.1.35.35,0,0,1-.17-.33.64.64,0,0,1,.13-.42.88.88,0,0,1,.37-.26,3.6,3.6,0,0,1,.58-.13L10,6.86s.08,0,.06.11-.12.53-.18.74a.37.37,0,0,1-.14.18"/><path class="cls-2" d="M30.53,3.34A.26.26,0,0,0,30.26,3h-.79a.46.46,0,0,0-.42.33l-1.11,5c0,.16-.06.27-.07.29h0A.25.25,0,0,0,28.1,9V9h.82a.45.45,0,0,0,.42-.34l1.18-5.33Z"/><path class="cls-2" d="M31.75,4.09l-.09,0h-.08a.28.28,0,0,1-.2-.07.32.32,0,0,1-.07-.23V3.36h-.1V3.24h.1V3h.14v.24h.3v.12h-.3v.39a.34.34,0,0,0,0,.11.19.19,0,0,0,0,.07.12.12,0,0,0,.05,0h.16l0,0h0Z"/><path class="cls-2" d="M33.17,4.1H33V3.61a.41.41,0,0,0,0-.11.19.19,0,0,0,0-.08.12.12,0,0,0,0,0h-.09a.27.27,0,0,0-.12,0l-.12.07V4.1h-.14V3.61a.41.41,0,0,0,0-.11.19.19,0,0,0,0-.08.12.12,0,0,0-.05,0h-.1l-.11,0-.12.07V4.1h-.15V3.24h.15v.1a.51.51,0,0,1,.13-.09.4.4,0,0,1,.15,0,.28.28,0,0,1,.15,0,.22.22,0,0,1,.09.1.63.63,0,0,1,.15-.11.41.41,0,0,1,.16,0,.26.26,0,0,1,.21.09.37.37,0,0,1,.06.23Z"/><rect class="cls-2" x="18.25" y="12.71" width="13.69" height="6.08" rx="0.48"/><path class="cls-3" d="M0,12.72H16.25a.47.47,0,0,1,.48.47v5.13a.48.48,0,0,1-.48.48H0"/></g></g></svg>