<svg xmlns="http://www.w3.org/2000/svg" viewBox="0 0 213.51 213.51"><defs><style>.cls-1{fill:none;stroke:#121135;stroke-linecap:round;stroke-linejoin:round;stroke-width:10px;}</style></defs><g id="Camada_2" data-name="Camada 2"><g id="Camada_1-2" data-name="Camada 1"><path class="cls-1" d="M142.9,137.18c-5.22,5.18-10.43,10.35-15.57,15.61-1.4,1.45-2.58,1.76-4.29.79-3.38-1.84-7-3.33-10.22-5.35-15.13-9.52-27.81-21.75-39-35.52a92.38,92.38,0,0,1-14-22.41,3.21,3.21,0,0,1,.79-4.12C65.8,81.13,70.89,76,76,70.78c7.15-7.19,7.15-15.61,0-22.85-4.08-4.12-8.16-8.15-12.24-12.27S55.37,27.19,51.11,23c-6.88-6.71-15.48-6.71-22.32.05-5.26,5.17-10.3,10.48-15.65,15.57a25.4,25.4,0,0,0-8,17.14C4.32,66.71,7,77,10.77,87.05c7.72,20.79,19.47,39.25,33.72,56.18a208.53,208.53,0,0,0,69.12,54.07c12.1,5.88,24.64,10.4,38.28,11.14,9.39.53,17.54-1.84,24.08-9.16,4.47-5,9.52-9.56,14.25-14.34,7-7.11,7.06-15.7.09-22.72q-12.5-12.57-25.09-25"/><path class="cls-1" d="M173,99.46a72.63,72.63,0,0,0-61.44-59.59"/><path class="cls-1" d="M145,104.4a45,45,0,0,0-38-36.9"/><path class="cls-1" d="M208.51,103.89a120.22,120.22,0,0,0-33.59-64.77h0A119.36,119.36,0,0,0,106.5,5"/></g></g></svg>