<svg xmlns="http://www.w3.org/2000/svg" viewBox="0 0 255.19 255.48"><defs><style>.cls-1{fill:none;stroke:#121135;stroke-linecap:round;stroke-linejoin:round;stroke-width:10px;}.cls-2{fill:#121135;}</style></defs><g id="Camada_2" data-name="Camada 2"><g id="Camada_1-2" data-name="Camada 1"><path class="cls-1" d="M240.19,64.9a10,10,0,0,1,9.62,12.7l-17.38,61.89a10,10,0,0,1-9.63,7.3H76.16"/><line class="cls-1" x1="56.16" y1="64.9" x2="133.08" y2="64.9"/><line class="cls-1" x1="76.16" y1="184.08" x2="229.03" y2="184.08"/><path class="cls-2" d="M91.16,215.48a15,15,0,1,1-15,15,15,15,0,0,1,15-15m0-10a25,25,0,1,0,25,25,25,25,0,0,0-25-25Z"/><path class="cls-2" d="M192,215.48a15,15,0,1,1-15,15,15,15,0,0,1,15-15m0-10a25,25,0,1,0,25,25,25,25,0,0,0-25-25Z"/><path class="cls-1" d="M97.71,63.91,88.18,37.73a10,10,0,0,1,9.4-13.42H126.3a10,10,0,0,1,9.39,6.58l3.82,9.38"/><path class="cls-1" d="M5,5H33.69a9,9,0,0,1,8.68,6.63L76.16,146.79a18.65,18.65,0,1,0,0,37.29"/><line class="cls-1" x1="108.73" y1="118.27" x2="197.94" y2="118.27"/><line class="cls-1" x1="95.52" y1="91.97" x2="143.58" y2="91.97"/><path class="cls-1" d="M224.13,60.26a21.43,21.43,0,0,1,.25,4.34,36.93,36.93,0,1,1-36.93-36.94c9.44,0,16.93,2.58,23.46,8.41"/><line class="cls-1" x1="164.39" y1="57.29" x2="188.63" y2="74.91"/><line class="cls-1" x1="237.63" y1="29.67" x2="189.03" y2="75.03"/></g></g></svg>