<svg xmlns="http://www.w3.org/2000/svg" viewBox="0 0 255.75 244.39"><defs><style>.cls-1{fill:none;stroke:#121135;stroke-linecap:round;stroke-linejoin:round;stroke-width:10px;}</style></defs><g id="Camada_2" data-name="Camada 2"><g id="Camada_1-2" data-name="Camada 1"><path class="cls-1" d="M5,135.28H34.54a10,10,0,0,1,10,10v84.11a10,10,0,0,1-10,10H5a0,0,0,0,1,0,0V135.28A0,0,0,0,1,5,135.28Z"/><path class="cls-1" d="M141.91,225.62A44.82,44.82,0,0,1,88.63,218"/><path class="cls-1" d="M208.17,150.61A30.66,30.66,0,0,1,250.75,168"/><line class="cls-1" x1="139.59" y1="226.81" x2="250.74" y2="168.02"/><line class="cls-1" x1="130.2" y1="198.38" x2="185.01" y2="175.44"/><line class="cls-1" x1="178.72" y1="162.76" x2="208.1" y2="150.47"/><path class="cls-1" d="M142.31,158.07a30.66,30.66,0,0,1,42.58,17.41"/><line class="cls-1" x1="44.54" y1="217.98" x2="88.16" y2="217.98"/><path class="cls-1" d="M44.54,156.61H61.19c.28,0-6.36,0-6.08,0a59.16,59.16,0,0,1,23.78,2.81l10,4.91c6.84,4.26,25.27,5.42,31.3,2.89L142.25,158"/><circle class="cls-1" cx="154.42" cy="67.35" r="62.35"/><path class="cls-1" d="M153.74,35.83a15.67,15.67,0,0,0,0,31.33"/><path class="cls-1" d="M155.1,67.55a15.66,15.66,0,1,1,0,31.32"/><line class="cls-1" x1="170.77" y1="35.83" x2="153.74" y2="35.83"/><line class="cls-1" x1="155.1" y1="98.87" x2="138.08" y2="98.87"/><line class="cls-1" x1="154.42" y1="35.83" x2="154.42" y2="23.78"/><line class="cls-1" x1="154.42" y1="110.92" x2="154.42" y2="98.87"/></g></g></svg>