<svg xmlns="http://www.w3.org/2000/svg" viewBox="0 0 254.57 172.8"><defs><style>.cls-1{fill:none;stroke:#121135;stroke-linecap:round;stroke-linejoin:round;stroke-width:10px;}.cls-2{fill:#121135;}</style></defs><g id="Camada_2" data-name="Camada 2"><g id="Camada_1-2" data-name="Camada 1"><polyline class="cls-1" points="36.14 141.61 5 141.61 5 5 176.99 5 176.99 141.61 82.15 141.61"/><circle class="cls-1" cx="208.84" cy="145.15" r="22.65"/><circle class="cls-2" cx="208.84" cy="145.15" r="5.31"/><circle class="cls-1" cx="59.18" cy="145.15" r="22.65"/><circle class="cls-2" cx="59.18" cy="145.15" r="5.31"/><line class="cls-1" x1="94.18" y1="122.5" x2="161.42" y2="122.5"/><path class="cls-1" d="M185.81,141.61H177V77.2h62a10.62,10.62,0,0,1,10.61,10.62v53.79H232.91"/><path class="cls-1" d="M231.49,95.61h18.08a0,0,0,0,1,0,0V114a0,0,0,0,1,0,0h-8.08a10,10,0,0,1-10-10v-8.4A0,0,0,0,1,231.49,95.61Z"/><path class="cls-1" d="M177,22h36.71a10,10,0,0,1,10,10v9.11a0,0,0,0,1,0,0H177a0,0,0,0,1,0,0V22A0,0,0,0,1,177,22Z"/><line class="cls-1" x1="221.93" y1="43.68" x2="227.99" y2="72.78"/></g></g></svg>