<svg xmlns="http://www.w3.org/2000/svg" viewBox="0 0 244.62 255.05"><defs><style>.cls-1{fill:none;stroke:#121135;stroke-linecap:round;stroke-linejoin:round;stroke-width:10px;}</style></defs><g id="Camada_2" data-name="Camada 2"><g id="Camada_1-2" data-name="Camada 1"><polygon class="cls-1" points="239.62 58.96 239.62 192.26 122.31 250.05 122.31 116.75 239.62 58.96"/><polygon class="cls-1" points="5 58.96 5 192.26 122.31 250.05 122.31 116.75 5 58.96"/><polygon class="cls-1" points="122.31 116.75 5 58.96 122.33 5 239.62 58.96 122.31 116.75"/><line class="cls-1" x1="28.98" y1="159.64" x2="64.08" y2="175.33"/><line class="cls-1" x1="28.98" y1="180.92" x2="46.74" y2="188.86"/><line class="cls-1" x1="45.96" y1="40.59" x2="159.18" y2="98.5"/><line class="cls-1" x1="72.23" y1="30.5" x2="182.53" y2="86.92"/><line class="cls-1" x1="93.49" y1="18.17" x2="205.82" y2="75.62"/><line class="cls-1" x1="159.18" y1="98.5" x2="159.18" y2="147.4"/><line class="cls-1" x1="205.81" y1="75.64" x2="205.81" y2="124.26"/><line class="cls-1" x1="159.18" y1="147.4" x2="205.88" y2="124.4"/></g></g></svg>