<svg xmlns="http://www.w3.org/2000/svg" viewBox="0 0 243.54 180.12"><defs><style>.cls-1,.cls-3{fill:none;}.cls-1{stroke:#121135;stroke-linecap:round;stroke-linejoin:round;stroke-width:10px;}.cls-2{fill:#121135;}</style></defs><g id="Camada_2" data-name="Camada 2"><g id="Camada_1-2" data-name="Camada 1"><path class="cls-1" d="M34.82,96.24H10.41A5.41,5.41,0,0,1,5,90.84v-74a5.41,5.41,0,0,1,5.41-5.41h99a5.41,5.41,0,0,1,5.41,5.41V53.13"/><path class="cls-2" d="M75,35.21a3.65,3.65,0,0,0,0,7.29,3.64,3.64,0,0,0,3.64-3.64,3.63,3.63,0,0,0-1.06-2.58A3.67,3.67,0,0,0,75,35.21Z"/><path class="cls-3" d="M69.39,53.85A9.47,9.47,0,1,0,53.71,61l.57,0H66.17A9.41,9.41,0,0,0,69.39,53.85Z"/><path class="cls-3" d="M72.47,30.82H47.38A10.51,10.51,0,0,0,36.89,41.31V66.4a10.5,10.5,0,0,0,7.26,10v-5.3a10.17,10.17,0,0,1,4.42-8.35,14.42,14.42,0,1,1,23.91-1.78H83V41.31A10.51,10.51,0,0,0,72.47,30.82Z"/><path class="cls-2" d="M36.89,66.4V41.31A10.51,10.51,0,0,1,47.38,30.82H72.47A10.51,10.51,0,0,1,83,41.31V60.94h5V41.31A15.47,15.47,0,0,0,72.47,25.85H47.38A15.47,15.47,0,0,0,31.93,41.31V66.4A15.47,15.47,0,0,0,44.15,81.51V76.37A10.5,10.5,0,0,1,36.89,66.4Z"/><path class="cls-2" d="M50.46,53.85a9.47,9.47,0,1,1,15.71,7.09h6.31a14.28,14.28,0,0,0,1.87-7.09,14.43,14.43,0,1,0-25.78,8.87A10,10,0,0,1,53.71,61,9.45,9.45,0,0,1,50.46,53.85Z"/><path class="cls-1" d="M128.69,53.13V10.41A5.41,5.41,0,0,1,134.1,5h99a5.41,5.41,0,0,1,5.4,5.41v74a5.4,5.4,0,0,1-5.4,5.4h-8.8"/><line class="cls-1" x1="205.51" y1="89.78" x2="172.1" y2="89.78"/><polyline class="cls-1" points="224.34 89.78 205.6 114.28 205.6 89.78"/><path class="cls-2" d="M213.17,29.07a25.42,25.42,0,0,1-7,1.91,12.06,12.06,0,0,0,5.33-6.7,24.38,24.38,0,0,1-7.68,2.94,12.11,12.11,0,0,0-21,8.28,12.43,12.43,0,0,0,.28,2.76,34.31,34.31,0,0,1-25-12.67,12.24,12.24,0,0,0-1.66,6.12,12.11,12.11,0,0,0,5.39,10.07,11.9,11.9,0,0,1-5.48-1.49v.13a12.18,12.18,0,0,0,9.71,11.91,12.1,12.1,0,0,1-3.18.4,10.85,10.85,0,0,1-2.29-.21A12.22,12.22,0,0,0,172,61a24.32,24.32,0,0,1-15,5.17,21.22,21.22,0,0,1-2.9-.17,34,34,0,0,0,18.59,5.44c22.29,0,34.48-18.47,34.48-34.48,0-.53,0-1.05,0-1.56A24.37,24.37,0,0,0,213.17,29.07Z"/><path class="cls-1" d="M125.87,150.63H54.46a5.41,5.41,0,0,1-5.4-5.41v-74a5.41,5.41,0,0,1,5.4-5.41h99a5.41,5.41,0,0,1,5.41,5.41v74a5.41,5.41,0,0,1-5.41,5.41h-8.8"/><polyline class="cls-1" points="144.7 150.63 125.96 175.13 125.96 150.63"/><path class="cls-2" d="M118,80.14h-7.29c-8.19,0-13.48,5.43-13.48,13.83v6.38H89.93a1.15,1.15,0,0,0-1.15,1.15v9.24a1.16,1.16,0,0,0,1.15,1.15h7.33V135.2a1.14,1.14,0,0,0,1.15,1.14H108a1.15,1.15,0,0,0,1.15-1.14V111.88h8.57a1.15,1.15,0,0,0,1.14-1.15v-9.24a1.17,1.17,0,0,0-.34-.81,1.13,1.13,0,0,0-.81-.34h-8.57v-5.4c0-2.6.62-3.92,4-3.92H118a1.14,1.14,0,0,0,1.15-1.14V81.29A1.14,1.14,0,0,0,118,80.14Z"/></g></g></svg>