<svg xmlns="http://www.w3.org/2000/svg" viewBox="0 0 9.75 7.92"><defs><style>.cls-1{fill:#121235;}</style></defs><g id="Camada_2" data-name="Camada 2"><g id="Modo_de_isolamento" data-name="Modo de isolamento"><path class="cls-1" d="M8.75,2c0,.09,0,.18,0,.26A5.66,5.66,0,0,1,3.07,7.92,5.67,5.67,0,0,1,0,7a3.87,3.87,0,0,0,.48,0A4,4,0,0,0,3,6.19,2,2,0,0,1,1.09,4.81a2.43,2.43,0,0,0,.38,0A1.88,1.88,0,0,0,2,4.77a2,2,0,0,1-1.61-2v0A2,2,0,0,0,1.3,3,2,2,0,0,1,.41,1.37a2,2,0,0,1,.27-1A5.69,5.69,0,0,0,4.8,2.46a2.31,2.31,0,0,1,0-.46A2,2,0,0,1,8.21.63,4.07,4.07,0,0,0,9.48.15a2,2,0,0,1-.88,1.1A3.77,3.77,0,0,0,9.75.94,4.08,4.08,0,0,1,8.75,2Z"/></g></g></svg>