<svg xmlns="http://www.w3.org/2000/svg" xmlns:xlink="http://www.w3.org/1999/xlink" viewBox="0 0 40 22"><defs><style>.cls-1{fill:url(#Blue_Gradient_01);}.cls-2{fill:#fff;}</style><linearGradient id="Blue_Gradient_01" y1="11" x2="40" y2="11" gradientUnits="userSpaceOnUse"><stop offset="0" stop-color="#272158"/><stop offset="1" stop-color="#164194"/></linearGradient></defs><g id="Camada_2" data-name="Camada 2"><g id="Camada_1-2" data-name="Camada 1"><rect class="cls-1" width="40" height="22" rx="2"/><path class="cls-2" d="M16.48,6.44l-3.84,9.15h-2.5L8.25,8.28a1,1,0,0,0-.56-.8A9.87,9.87,0,0,0,5.35,6.7l.06-.26h4a1.1,1.1,0,0,1,1.09.93l1,5.29L14,6.44Zm9.8,6.16c0-2.42-3.34-2.55-3.32-3.63,0-.33.32-.67,1-.76a4.37,4.37,0,0,1,2.33.41l.42-1.94a6.32,6.32,0,0,0-2.22-.41c-2.34,0-4,1.24-4,3,0,1.32,1.18,2.06,2.07,2.49s1.24.74,1.23,1.14c0,.62-.73.89-1.41.9A4.93,4.93,0,0,1,20,13.24l-.42,2a7,7,0,0,0,2.63.49c2.48,0,4.11-1.23,4.12-3.13m6.18,3h2.19L32.73,6.44h-2a1.07,1.07,0,0,0-1,.67l-3.55,8.48h2.48l.49-1.37h3Zm-2.64-3.25,1.24-3.43.72,3.43Zm-10-5.9-2,9.15H15.53l2-9.15Z"/></g></g></svg>